P3
64 64
255
175 175 175 210 210 210 176 176 176 181 182 182 175 175 175 184 184 184 181 181 181 182 182 181 174 175 174 154 154 154 143 143 143 162 162 162 161 161 161 155 155 155 121 121 121 98  98  98  93  92  93  134 134 133 60  60  60  108 108 108 177 177 177 166 166 166 107 107 107 98  98  98  96  96  96  109 109 109 111 111 112 92  93  93  209 210 209 214 215 214 122 122 122 199 199 199 176 176 176 155 155 155 88  88  88  149 149 149 159 159 159 190 191 191 191 191 191 108 108 108 89  89  89  80  80  80  78  78  78  119 119 119 60  60  60  147 147 147 166 166 166 97  97  97  103 103 103 131 131 131 137 137 137 132 132 132 149 149 149 165 165 165 97  97  97  169 169 169 163 163 163 117 117 117 129 129 129 118 118 118 104 104 104 67  67  67  66  66  66  97  97  97  
172 172 172 120 120 120 115 115 115 138 138 138 144 144 144 158 158 158 151 151 151 155 155 155 151 151 151 140 140 140 113 113 113 178 178 178 210 210 210 223 223 223 216 216 215 187 187 187 140 140 139 142 142 141 136 136 136 202 202 202 151 151 151 96  96  96  94  94  93  120 120 120 119 119 119 134 134 134 137 137 137 133 133 133 212 213 213 238 238 238 201 202 202 182 182 182 181 181 181 129 129 129 79  79  79  137 137 137 174 174 174 210 210 210 211 211 211 206 206 206 190 190 190 176 176 176 125 125 125 113 114 114 104 104 104 149 149 149 120 120 120 99  99  99  129 129 129 142 142 142 142 142 142 126 126 126 134 134 134 158 158 158 116 116 116 114 114 114 144 144 144 139 139 139 92  92  92  53  53  53  66  65  66  83  83  85  134 134 134 198 198 198 
135 135 135 142 141 142 164 164 164 169 169 169 162 162 162 158 158 158 142 142 142 143 143 143 140 140 140 127 127 126 67  67  67  180 180 180 252 252 252 250 250 250 213 213 213 199 200 199 191 191 191 201 202 201 189 189 189 192 192 192 126 125 125 100 100 100 111 111 111 130 130 130 133 133 133 144 144 144 143 143 143 138 138 138 185 185 185 184 184 184 162 162 162 144 144 144 176 176 176 123 123 123 89  89  87  122 122 122 129 129 129 135 135 135 144 144 144 160 160 158 156 156 156 165 165 165 157 157 157 153 153 153 168 168 168 182 182 182 134 134 134 144 144 144 154 154 154 143 144 143 136 136 136 117 117 117 123 123 123 150 150 150 129 129 129 76  76  76  129 129 129 142 142 142 151 151 151 127 127 127 97  97  97  113 112 112 183 183 183 180 180 180 
157 157 157 147 147 147 167 167 167 169 169 169 146 146 146 148 149 149 125 125 125 150 151 151 139 139 139 126 126 126 66  66  66  179 179 179 246 246 246 155 155 155 140 140 140 127 128 127 130 130 130 163 163 163 126 126 126 173 173 173 162 162 161 113 113 113 129 129 128 139 139 139 136 136 136 135 135 135 135 135 135 128 128 128 176 176 177 172 172 172 143 143 143 81  81  81  152 152 152 140 140 140 106 106 106 149 149 149 125 125 125 136 136 136 142 142 142 157 157 156 134 134 134 120 120 120 125 125 125 155 155 155 210 210 210 172 172 172 153 153 153 154 154 154 150 150 150 142 142 142 129 129 129 114 114 114 101 101 101 119 119 119 105 105 105 82  82  82  168 168 168 183 183 184 180 180 180 137 137 139 87  87  87  156 155 155 238 238 238 167 167 167 
138 137 138 135 134 135 144 144 145 164 164 165 146 146 146 124 125 125 117 118 118 152 152 152 148 148 148 129 129 129 67  67  67  190 190 190 215 215 214 141 141 141 134 134 134 116 116 116 115 115 115 140 140 140 123 123 123 130 130 130 184 183 183 192 192 192 124 124 124 106 106 106 123 123 123 130 130 130 137 137 137 147 147 147 171 171 171 173 173 173 138 137 137 82  82  82  142 142 142 166 166 166 136 136 136 128 128 128 114 114 114 124 124 124 142 142 142 159 159 159 157 157 158 126 126 126 107 107 107 178 178 178 216 216 216 152 152 152 150 150 150 147 147 147 137 137 137 135 135 135 114 114 114 82  82  82  85  85  85  72  72  72  86  86  86  149 149 149 202 202 202 198 198 198 156 156 156 116 116 116 131 131 131 232 231 231 232 232 232 155 155 155 
132 132 132 127 127 127 108 108 108 118 118 118 144 144 144 138 138 138 144 144 144 173 174 174 167 167 167 134 134 134 79  79  79  214 214 214 215 215 215 125 124 125 120 120 120 109 109 109 104 104 104 134 134 134 154 154 154 145 145 145 144 144 144 202 202 202 156 156 156 92  92  92  103 103 103 107 107 107 144 144 144 173 173 173 182 182 182 184 184 184 153 153 153 98  98  98  128 128 128 166 167 166 182 182 182 153 153 153 124 124 124 122 122 122 133 133 133 154 154 154 150 150 150 121 122 122 99  99  99  225 225 225 176 176 176 152 152 152 145 145 145 138 138 138 131 131 131 119 119 119 96  96  96  81  81  81  64  64  64  118 118 118 182 182 182 211 211 211 183 183 183 122 122 122 129 129 129 150 150 150 82  82  82  229 229 229 219 219 220 166 166 166 
117 117 117 109 109 109 112 112 113 118 118 118 175 175 175 174 174 174 167 167 167 170 170 170 168 168 168 137 137 137 83  83  83  217 217 217 213 213 213 136 136 136 127 127 128 121 121 121 107 107 107 138 138 138 168 168 168 172 172 172 105 105 105 169 169 169 176 176 176 120 120 120 134 134 134 162 162 162 183 183 183 182 182 182 166 166 166 156 156 156 167 167 167 133 133 133 97  97  97  151 151 151 191 191 191 181 181 181 171 171 171 147 147 148 132 133 133 157 158 158 140 140 140 132 132 132 142 142 142 215 215 215 150 150 150 141 141 141 136 136 136 133 133 133 128 128 128 92  92  92  63  63  63  68  68  68  148 147 148 231 231 231 237 237 237 160 160 160 138 138 138 146 146 146 164 164 164 164 164 164 62  62  62  215 215 215 210 210 210 166 166 166 
150 150 150 101 101 101 102 102 102 119 119 119 142 142 142 151 151 151 157 157 157 171 171 171 167 167 167 129 129 129 83  83  83  211 211 211 200 201 201 141 141 141 129 128 129 117 117 117 98  98  98  125 125 125 158 158 158 162 162 162 138 138 138 111 111 111 178 178 178 153 153 153 146 146 146 171 171 171 173 173 173 161 161 161 142 142 142 120 119 119 147 147 147 134 134 134 82  82  82  196 196 196 231 231 230 211 211 211 210 210 210 201 202 202 177 177 177 181 181 181 149 149 149 137 137 137 179 179 179 157 157 157 141 141 141 124 124 124 128 128 128 116 116 116 101 101 101 46  46  46  79  79  79  164 164 164 214 214 214 203 203 203 141 141 141 142 142 142 158 158 158 155 155 155 165 165 165 146 146 146 73  73  73  184 184 184 208 208 208 206 206 206 
208 208 208 185 184 185 161 161 161 112 112 112 84  84  84  92  92  92  135 135 135 144 144 144 143 143 142 121 121 121 90  90  90  212 212 212 201 201 201 138 138 138 126 126 126 108 108 108 104 104 104 122 122 122 146 146 146 153 153 153 143 143 143 88  88  88  165 165 166 160 160 160 199 199 199 206 206 206 162 162 162 139 139 139 130 130 130 101 100 100 123 123 123 134 134 134 84  84  84  222 223 222 171 171 171 150 150 150 141 141 141 153 153 153 162 162 162 192 192 192 144 144 144 114 114 114 159 159 159 113 113 113 100 100 100 84  84  84  78  78  78  72  72  72  71  71  71  74  74  74  122 122 122 194 194 194 156 156 156 138 138 138 140 140 140 145 145 145 146 146 146 139 139 139 156 156 156 143 143 143 88  88  88  177 177 177 216 216 216 214 214 214 
194 194 194 173 173 173 195 195 195 204 204 204 190 190 190 149 149 149 116 116 116 81  81  81  91  91  91  92  92  92  97  97  97  199 199 199 198 199 198 134 134 134 122 122 122 112 112 112 117 116 117 132 132 132 147 147 147 165 164 165 152 152 152 75  75  75  158 158 158 150 150 150 171 171 171 216 216 216 186 186 186 125 125 125 114 114 114 105 104 104 116 116 116 129 128 128 81  81  81  203 203 203 165 165 165 158 158 158 150 150 150 153 153 153 161 161 161 163 163 163 116 116 116 115 115 115 134 134 134 126 126 126 120 120 120 124 124 124 114 114 114 117 117 117 103 105 105 120 120 120 159 159 159 198 198 198 161 161 161 118 118 118 131 131 131 136 136 136 121 121 121 124 124 124 136 136 136 149 149 149 79  79  79  172 171 172 197 197 197 202 202 202 
115 114 115 112 112 112 144 144 144 188 187 187 197 197 197 203 203 203 204 204 204 184 184 184 145 145 145 111 111 111 129 129 129 184 184 184 179 179 179 130 131 131 138 138 138 142 142 142 147 147 147 161 161 161 166 166 166 166 166 166 130 129 130 79  79  79  162 162 162 153 153 153 165 165 165 196 196 196 156 156 156 155 156 156 126 126 126 86  86  86  114 113 113 115 115 115 82  82  82  197 197 197 153 153 153 148 148 148 139 140 140 147 147 147 157 157 157 140 140 140 84  84  84  112 112 112 131 131 131 157 157 157 194 194 195 209 209 209 185 185 185 159 159 159 124 124 124 134 134 134 190 191 191 216 216 216 211 211 211 190 190 190 141 141 141 134 134 134 131 131 131 137 137 137 140 140 140 147 146 147 61  61  61  177 177 177 198 198 198 156 156 156 
91  91  91  98  98  98  106 106 106 116 116 116 123 123 123 139 139 139 186 187 187 173 173 173 160 160 160 145 145 145 151 151 151 179 179 179 162 162 162 123 123 123 140 140 140 155 155 155 159 159 159 170 170 170 170 170 170 159 159 159 104 104 104 92  92  91  175 175 175 151 152 151 138 138 138 145 145 145 141 141 141 137 137 137 177 177 177 147 149 147 93  93  93  89  89  89  104 104 104 207 207 207 149 149 149 140 140 140 136 136 136 136 136 136 142 142 142 121 121 120 56  56  56  101 101 101 146 146 146 208 208 208 215 215 215 207 207 207 158 157 157 125 125 125 116 116 116 129 129 129 170 170 170 192 193 193 205 205 205 207 207 205 207 208 208 190 190 190 132 132 132 126 126 126 123 123 123 99  99  99  90  90  90  187 187 187 183 183 183 102 102 102 
81  81  81  92  92  92  104 104 104 112 112 112 123 123 123 121 121 121 146 146 147 129 129 129 120 120 120 123 123 123 150 150 150 165 165 165 119 119 119 117 117 117 142 142 142 153 153 153 157 157 157 168 168 168 170 170 170 160 160 161 107 107 107 125 125 125 202 202 202 174 174 174 144 143 143 133 132 133 146 146 146 116 116 116 177 177 177 176 176 176 170 170 170 158 158 158 159 159 159 208 208 208 137 137 137 137 137 137 135 135 135 134 133 134 133 133 133 53  53  53  88  88  88  121 121 121 171 171 171 191 191 191 165 165 165 155 155 155 134 134 134 135 135 135 145 145 145 166 166 166 207 206 207 191 191 191 158 158 158 150 150 150 175 175 175 208 209 208 206 206 206 185 185 185 110 110 109 76  76  76  137 137 136 165 165 165 152 152 152 80  80  80  
109 110 110 103 103 103 100 100 100 96  96  96  108 108 109 110 110 111 141 141 141 138 138 138 127 127 127 101 101 101 159 159 159 179 179 179 177 177 177 173 173 173 137 137 137 141 141 141 146 146 146 150 150 150 156 156 156 139 139 139 122 122 122 140 140 140 207 207 207 204 204 204 145 145 144 142 141 141 143 143 143 132 132 132 152 152 152 132 132 132 167 168 167 185 185 185 207 207 207 200 200 200 138 138 139 111 111 111 106 105 105 112 111 111 52  52  52  84  84  84  139 139 139 176 176 176 169 169 169 164 164 164 148 148 148 141 141 141 138 138 138 155 155 155 163 163 163 161 161 161 201 201 201 191 191 191 189 189 189 164 164 164 132 132 132 188 188 188 192 192 192 184 184 184 123 123 123 132 132 132 152 152 152 172 172 172 139 139 139 115 115 115 
119 119 119 118 118 118 114 114 114 98  98  98  110 110 111 126 126 126 157 157 157 161 161 161 127 127 127 86  86  86  170 170 170 192 192 192 215 215 214 191 191 191 174 174 174 157 157 157 132 132 132 151 150 151 156 156 156 135 135 135 134 134 134 142 142 142 191 192 191 202 202 202 146 146 146 146 146 146 144 145 144 140 140 140 163 163 163 160 160 160 140 140 140 125 125 125 178 178 178 190 190 190 170 170 170 127 127 127 80  80  80  69  69  69  93  93  93  142 142 144 179 179 179 160 160 160 174 174 174 191 191 191 145 145 145 137 137 137 136 136 136 161 161 161 167 167 167 153 153 153 183 183 183 196 196 196 182 182 182 142 142 142 102 102 102 158 158 158 183 183 183 172 172 170 166 166 166 153 153 153 141 141 141 184 184 184 115 115 115 112 112 112 
128 128 128 130 130 130 140 140 140 140 140 140 143 143 143 147 147 147 155 155 155 156 156 156 138 138 138 110 110 110 186 188 186 232 232 232 240 240 240 222 222 221 169 169 169 147 147 147 129 129 129 111 111 111 132 132 132 116 116 116 135 135 135 134 134 134 172 172 172 200 200 200 159 159 159 166 166 166 154 155 154 137 137 137 144 144 144 148 148 148 159 159 159 152 152 151 115 115 115 142 142 142 142 142 142 120 120 120 122 122 122 116 116 116 141 141 141 172 172 172 148 148 148 153 153 153 177 177 177 186 186 186 182 182 182 146 146 146 147 147 147 162 162 162 156 156 156 153 153 153 154 154 154 186 186 186 153 153 153 106 106 106 116 116 116 146 146 146 195 195 195 149 149 149 144 144 144 150 150 150 154 154 154 183 183 183 119 119 119 113 113 113 
122 121 121 136 136 136 149 149 149 154 155 155 142 142 142 144 144 144 139 139 139 153 153 153 147 147 147 113 113 113 205 205 205 223 224 224 189 189 189 193 193 192 213 213 213 179 179 179 148 148 148 126 126 126 114 114 114 100 100 100 140 140 140 146 146 146 155 155 155 201 201 201 150 150 150 154 154 154 143 144 143 128 128 128 120 120 120 137 137 137 155 155 155 153 153 153 131 131 131 88  88  88  115 115 115 123 123 123 127 127 127 149 149 149 180 180 180 206 206 206 163 163 163 134 134 134 151 150 151 182 182 182 191 191 192 178 178 178 149 149 149 151 151 151 150 150 150 152 152 152 148 148 148 162 162 162 131 131 131 90  90  90  141 141 141 153 153 153 206 206 206 147 148 147 119 119 119 161 160 160 200 200 200 185 185 185 123 123 123 98  98  98  
124 124 124 135 135 135 141 141 141 148 148 148 132 132 132 128 128 128 132 132 132 144 144 144 147 147 147 113 113 113 197 197 197 214 215 215 168 168 168 167 167 167 170 170 170 163 163 163 190 190 190 190 189 190 215 215 215 216 216 216 214 214 215 179 179 179 156 156 156 206 206 206 152 152 152 148 148 148 137 137 137 122 122 122 132 132 131 151 151 151 158 158 158 153 153 153 114 114 114 71  71  71  134 134 134 162 162 162 175 175 175 191 191 191 220 220 221 218 218 218 190 190 190 136 136 136 151 151 151 184 184 184 193 193 193 185 185 185 186 186 186 146 146 146 139 139 139 144 144 144 151 151 151 128 128 128 108 108 108 114 114 114 173 173 173 185 185 185 161 161 161 151 151 151 164 164 164 118 118 118 195 195 195 193 193 193 180 180 180 115 115 115 
137 137 137 156 156 156 155 155 155 151 151 151 133 133 133 116 116 116 152 152 152 159 160 159 163 164 163 122 122 122 186 186 186 184 184 184 138 138 138 148 148 148 159 159 160 157 157 157 164 164 164 157 157 157 189 189 189 181 181 181 200 200 200 164 164 164 142 142 142 171 171 171 153 153 153 136 136 136 122 122 122 118 119 119 141 141 141 172 172 172 174 174 174 155 155 155 115 115 115 100 100 100 198 198 198 203 203 203 188 188 188 127 127 127 159 159 159 197 197 197 197 198 197 172 172 172 159 159 159 159 159 159 178 179 179 174 174 174 189 188 188 190 189 189 171 171 171 138 138 138 132 132 132 107 107 107 82  81  82  132 132 132 156 156 155 191 191 190 130 130 130 128 128 128 182 182 182 147 147 147 136 136 136 156 156 156 168 168 168 154 154 154 
132 133 133 134 134 134 137 137 137 148 148 148 133 133 133 128 128 128 160 160 160 164 166 166 154 154 154 120 120 120 149 149 149 145 145 145 142 142 142 157 157 157 139 139 139 117 117 117 127 127 127 135 135 135 159 159 159 152 152 152 136 136 136 148 148 148 140 140 140 131 131 131 142 141 142 124 124 124 119 119 119 128 128 128 158 158 158 175 175 175 182 182 182 155 155 155 56  56  56  137 137 137 211 212 212 249 249 249 161 161 161 141 141 141 148 148 148 143 143 143 191 191 191 203 203 203 179 179 179 149 149 149 151 151 151 163 163 163 180 180 180 183 183 183 185 185 185 159 159 159 115 115 115 86  86  86  110 110 110 152 152 152 170 170 170 201 201 201 128 128 128 134 134 134 169 169 169 168 168 169 139 139 139 130 130 130 206 206 206 214 214 214 
170 170 170 139 139 140 128 128 128 142 142 142 149 149 149 153 153 153 164 164 164 161 161 161 149 149 149 111 111 111 120 120 120 132 132 132 168 168 168 166 166 166 119 119 119 115 115 115 122 122 122 133 133 133 149 149 148 119 119 119 94  94  94  130 130 130 143 143 143 111 111 111 154 154 154 148 148 148 146 146 146 159 159 161 173 173 173 165 165 165 164 164 164 98  98  98  90  90  90  187 187 187 209 209 209 186 186 186 155 155 155 153 153 153 159 159 159 161 161 161 144 144 144 205 205 205 201 201 201 145 145 145 136 136 136 144 144 144 169 169 169 171 171 171 144 144 144 132 132 132 99  99  99  139 139 139 150 150 150 155 155 155 176 176 176 159 159 159 141 141 141 147 147 147 160 160 160 176 176 176 164 164 164 121 121 121 165 165 165 223 224 224 
207 207 207 125 125 125 96  97  97  89  89  89  95  95  95  107 107 107 95  95  95  88  88  88  89  89  89  89  89  89  114 114 114 178 178 178 195 195 195 153 153 153 115 115 115 100 100 100 101 101 101 119 119 119 131 131 131 107 107 107 67  67  67  147 147 147 137 137 137 125 125 125 137 137 136 157 157 157 161 161 161 163 163 163 152 152 152 144 144 144 140 140 140 59  59  58  161 161 161 221 222 221 208 208 208 148 148 148 153 153 153 148 148 148 153 153 153 180 180 178 148 148 148 147 147 147 201 201 201 174 174 174 132 131 132 129 129 129 143 143 143 147 147 147 119 119 119 89  89  89  150 150 150 187 187 187 184 184 184 172 172 172 159 159 159 153 153 154 146 146 146 146 146 146 150 150 150 185 185 185 201 201 201 181 181 181 129 129 129 167 167 167 
217 217 217 190 191 190 151 151 151 140 140 140 175 175 175 167 167 167 141 141 141 120 120 120 129 129 129 177 177 177 206 206 206 220 220 220 221 221 221 131 131 132 104 104 104 92  92  92  93  93  93  117 117 117 141 141 141 120 121 120 74  74  74  182 182 182 123 123 123 117 117 117 113 113 113 137 138 137 173 172 172 83  83  83  70  70  70  56  56  56  74  73  74  133 133 133 230 230 230 219 220 219 145 145 145 138 138 138 136 136 136 127 127 127 145 145 145 167 167 166 153 153 153 113 113 113 160 160 160 174 174 174 176 175 176 136 136 136 116 116 116 117 117 117 83  83  83  131 131 131 179 179 179 184 184 184 184 184 184 142 142 142 158 158 157 153 153 153 148 148 148 148 149 149 154 154 154 178 179 178 185 185 185 160 160 160 145 145 145 109 109 109 
241 241 241 231 231 231 197 197 197 193 193 193 207 207 207 202 202 202 203 203 203 204 204 204 218 218 218 235 235 235 222 222 222 207 207 207 197 197 197 110 110 110 78  78  78  85  85  85  106 106 106 142 142 141 164 164 164 130 130 130 82  82  81  167 167 167 100 100 100 99  99  99  91  91  91  82  82  82  78  78  78  82  82  82  152 152 152 177 177 177 188 188 188 208 208 208 227 227 227 167 167 167 142 143 142 138 138 138 129 129 129 113 113 113 126 126 126 149 149 149 141 141 141 130 130 130 110 110 110 149 149 149 183 183 182 167 167 167 95  95  95  91  91  91  143 143 143 175 175 175 190 190 190 181 181 181 133 133 133 145 145 145 177 177 177 164 164 164 152 152 152 153 153 153 158 158 158 135 135 135 146 146 146 112 113 113 81  81  81  110 110 110 
226 226 226 151 151 151 136 136 136 146 146 146 168 168 168 187 187 187 191 191 191 199 199 199 208 208 208 184 184 184 144 144 144 155 155 155 194 194 194 162 162 162 121 121 121 143 143 142 162 162 162 174 174 174 169 169 169 130 130 130 82  82  82  156 154 154 165 165 165 158 158 158 181 182 181 197 197 197 204 204 204 215 215 215 217 217 217 192 192 192 178 178 178 190 190 190 195 195 195 136 136 136 138 138 138 135 135 134 123 123 122 107 107 107 113 113 113 131 131 131 131 131 131 131 131 131 130 130 130 116 116 116 162 162 162 179 179 179 149 149 149 138 138 138 154 154 154 188 188 188 211 211 211 149 149 149 132 132 132 133 133 133 180 180 180 174 174 174 156 156 156 156 156 156 150 150 150 88  88  88  86  86  86  111 111 111 162 162 162 243 243 243 
148 148 148 155 154 154 138 138 138 139 139 139 159 159 159 178 178 178 194 194 194 193 193 193 171 171 171 153 154 154 138 138 138 125 125 125 164 164 164 213 213 213 159 159 159 173 173 173 192 192 192 177 177 177 136 136 136 117 117 117 84  84  84  147 147 147 220 219 219 226 226 226 232 232 232 212 212 212 183 183 183 140 140 140 124 124 124 128 128 128 136 136 136 177 177 177 172 172 172 135 135 135 138 138 137 140 140 140 122 122 122 106 106 106 122 122 122 155 155 155 142 141 141 134 134 134 130 130 130 143 143 143 108 108 108 186 186 186 161 161 162 157 157 157 146 146 146 188 188 188 149 149 149 152 152 152 146 146 146 142 142 142 177 177 177 181 181 181 144 144 144 139 139 139 98  98  98  84  84  84  174 175 175 220 221 221 248 248 248 198 198 198 
137 137 137 133 133 133 118 118 118 143 143 143 167 167 167 186 186 186 175 175 175 152 152 152 152 152 152 133 135 135 147 147 147 166 166 166 125 125 125 218 218 218 188 188 188 160 160 161 165 165 165 165 165 165 94  93  94  71  71  71  100 100 100 183 183 183 232 232 232 183 183 183 146 146 146 131 131 131 128 128 128 117 117 117 120 120 120 126 126 126 74  74  74  164 164 164 167 167 167 132 132 132 116 116 116 128 128 128 124 124 124 126 125 126 150 150 150 171 171 171 151 151 151 146 146 146 135 135 135 139 139 139 91  91  92  195 195 195 183 183 183 180 180 180 166 166 166 208 208 208 167 167 167 134 134 134 129 129 129 135 135 135 163 163 163 161 160 160 127 127 127 123 123 123 95  95  95  108 108 108 205 205 205 228 228 228 186 186 186 144 144 144 
109 109 109 117 117 117 119 119 119 133 133 133 147 147 147 136 136 136 141 141 141 139 139 139 143 143 143 132 132 132 136 136 136 175 175 176 152 152 152 152 152 152 188 188 188 119 119 119 124 125 125 83  83  84  106 106 106 166 165 166 176 176 176 205 205 205 169 169 169 153 153 153 156 156 156 153 153 153 154 154 154 145 145 145 129 129 128 119 119 119 65  65  65  125 125 125 155 155 155 159 159 159 103 103 103 112 112 112 125 125 125 135 135 135 148 148 148 160 160 160 151 151 151 134 134 134 119 119 119 118 118 118 105 105 105 193 194 193 201 201 201 139 139 139 120 120 120 170 170 170 192 192 192 196 196 196 154 154 154 111 113 113 103 103 103 132 132 132 116 116 116 129 128 128 112 112 112 102 102 102 200 200 200 229 229 229 171 171 171 117 117 117 
109 109 109 95  95  95  110 110 110 131 131 131 118 118 118 114 114 113 132 132 132 135 135 135 134 134 134 132 132 132 139 139 139 184 184 184 164 164 164 106 106 106 167 165 165 177 178 177 184 184 184 167 167 167 231 231 231 199 199 199 172 172 172 211 211 209 179 179 179 140 140 140 139 139 139 141 141 141 139 139 139 138 138 138 148 148 148 147 147 147 102 102 102 98  99  99  150 150 150 169 169 169 106 106 106 108 108 108 121 121 121 128 127 128 137 137 137 143 143 143 148 148 148 135 135 135 119 119 119 81  81  81  159 159 159 215 215 215 170 170 170 124 124 124 154 154 154 176 176 175 154 154 154 154 154 154 186 186 186 178 178 178 160 160 160 158 158 158 123 123 123 120 120 120 115 115 115 118 118 118 193 193 193 218 218 218 195 195 195 168 168 168 
175 175 175 162 163 162 136 136 136 130 130 130 102 102 102 96  96  96  109 109 109 128 128 128 137 137 137 139 139 139 142 142 142 171 171 171 149 149 149 84  84  84  154 154 154 203 203 203 235 235 235 245 245 245 191 191 191 133 133 133 106 106 106 189 189 189 214 214 214 151 151 151 139 139 139 138 138 138 134 134 134 127 127 127 136 136 136 142 142 142 130 130 130 82  82  82  192 192 192 174 174 174 120 120 120 102 102 102 118 118 118 120 120 120 129 128 128 141 141 141 145 145 145 127 127 127 91  91  91  120 120 120 203 204 203 193 193 193 109 109 109 131 131 131 162 162 162 159 159 159 159 159 159 173 173 173 134 133 134 128 128 128 162 162 162 191 191 191 203 203 203 174 174 174 146 146 146 125 125 125 154 156 154 167 167 167 180 180 180 178 178 178 
180 180 180 168 168 168 148 148 148 139 139 139 92  92  92  65  65  65  86  86  86  119 119 119 139 139 139 130 130 130 139 139 140 150 150 150 134 134 134 69  69  69  169 169 169 215 215 215 198 198 198 149 149 149 133 133 133 129 129 129 105 105 105 158 158 158 236 236 236 203 203 203 131 131 131 132 133 132 132 132 132 122 122 122 133 133 133 136 136 136 137 137 137 80  80  80  205 205 205 195 193 193 136 136 136 83  83  83  85  85  85  91  91  91  112 111 111 129 129 129 129 129 129 122 122 122 67  67  67  168 168 167 210 210 210 138 138 138 106 106 106 151 151 151 164 164 164 155 155 155 154 154 154 150 150 150 118 118 118 95  95  95  164 164 164 197 197 197 199 199 199 186 186 186 147 147 147 121 121 121 138 138 138 150 150 150 151 151 151 165 165 165 
167 167 167 154 154 154 118 118 118 148 148 148 126 126 126 99  99  99  108 108 108 117 117 117 116 116 116 117 117 117 129 129 129 139 138 139 66  66  66  107 107 107 189 189 189 151 151 151 117 117 117 137 137 137 145 145 145 150 150 150 136 136 136 102 102 102 157 157 157 199 199 199 152 152 152 122 122 122 135 135 135 128 128 128 135 135 135 121 121 121 136 136 136 97  97  97  183 183 183 197 197 197 163 163 163 136 137 137 111 111 111 107 107 107 93  93  93  79  79  79  69  69  69  78  78  78  109 109 109 176 176 176 165 165 165 87  87  87  117 117 117 137 137 137 136 136 136 122 122 122 125 125 125 75  75  74  63  63  63  129 129 129 177 177 177 148 148 148 110 110 110 94  94  94  95  95  95  111 111 111 176 176 176 168 168 168 127 127 127 149 149 149 
176 176 176 155 155 155 88  88  88  149 149 149 159 159 159 190 191 191 191 191 191 108 108 108 89  89  89  80  80  80  78  78  78  119 119 119 60  60  60  147 147 147 166 166 166 97  97  97  103 103 103 131 131 131 137 137 137 132 132 132 149 149 149 165 165 165 97  97  97  169 169 169 163 163 163 117 117 117 129 129 129 118 118 118 104 104 104 67  67  67  66  66  66  97  97  97  175 175 175 210 210 210 176 176 176 181 182 182 175 175 175 184 184 184 181 181 181 182 182 181 174 175 174 154 154 154 143 143 143 162 162 162 161 161 161 155 155 155 121 121 121 98  98  98  93  92  93  134 134 133 60  60  60  108 108 108 177 177 177 166 166 166 107 107 107 98  98  98  96  96  96  109 109 109 111 111 112 92  93  93  209 210 209 214 215 214 122 122 122 199 199 199 
181 181 181 129 129 129 79  79  79  137 137 137 174 174 174 210 210 210 211 211 211 206 206 206 190 190 190 176 176 176 125 125 125 113 114 114 104 104 104 149 149 149 120 120 120 99  99  99  129 129 129 142 142 142 142 142 142 126 126 126 134 134 134 158 158 158 116 116 116 114 114 114 144 144 144 139 139 139 92  92  92  53  53  53  66  65  66  83  83  85  134 134 134 198 198 198 172 172 172 120 120 120 115 115 115 138 138 138 144 144 144 158 158 158 151 151 151 155 155 155 151 151 151 140 140 140 113 113 113 178 178 178 210 210 210 223 223 223 216 216 215 187 187 187 140 140 139 142 142 141 136 136 136 202 202 202 151 151 151 96  96  96  94  94  93  120 120 120 119 119 119 134 134 134 137 137 137 133 133 133 212 213 213 238 238 238 201 202 202 182 182 182 
176 176 176 123 123 123 89  89  87  122 122 122 129 129 129 135 135 135 144 144 144 160 160 158 156 156 156 165 165 165 157 157 157 153 153 153 168 168 168 182 182 182 134 134 134 144 144 144 154 154 154 143 144 143 136 136 136 117 117 117 123 123 123 150 150 150 129 129 129 76  76  76  129 129 129 142 142 142 151 151 151 127 127 127 97  97  97  113 112 112 183 183 183 180 180 180 135 135 135 142 141 142 164 164 164 169 169 169 162 162 162 158 158 158 142 142 142 143 143 143 140 140 140 127 127 126 67  67  67  180 180 180 252 252 252 250 250 250 213 213 213 199 200 199 191 191 191 201 202 201 189 189 189 192 192 192 126 125 125 100 100 100 111 111 111 130 130 130 133 133 133 144 144 144 143 143 143 138 138 138 185 185 185 184 184 184 162 162 162 144 144 144 
152 152 152 140 140 140 106 106 106 149 149 149 125 125 125 136 136 136 142 142 142 157 157 156 134 134 134 120 120 120 125 125 125 155 155 155 210 210 210 172 172 172 153 153 153 154 154 154 150 150 150 142 142 142 129 129 129 114 114 114 101 101 101 119 119 119 105 105 105 82  82  82  168 168 168 183 183 184 180 180 180 137 137 139 87  87  87  156 155 155 238 238 238 167 167 167 157 157 157 147 147 147 167 167 167 169 169 169 146 146 146 148 149 149 125 125 125 150 151 151 139 139 139 126 126 126 66  66  66  179 179 179 246 246 246 155 155 155 140 140 140 127 128 127 130 130 130 163 163 163 126 126 126 173 173 173 162 162 161 113 113 113 129 129 128 139 139 139 136 136 136 135 135 135 135 135 135 128 128 128 176 176 177 172 172 172 143 143 143 81  81  81  
142 142 142 166 166 166 136 136 136 128 128 128 114 114 114 124 124 124 142 142 142 159 159 159 157 157 158 126 126 126 107 107 107 178 178 178 216 216 216 152 152 152 150 150 150 147 147 147 137 137 137 135 135 135 114 114 114 82  82  82  85  85  85  72  72  72  86  86  86  149 149 149 202 202 202 198 198 198 156 156 156 116 116 116 131 131 131 232 231 231 232 232 232 155 155 155 138 137 138 135 134 135 144 144 145 164 164 165 146 146 146 124 125 125 117 118 118 152 152 152 148 148 148 129 129 129 67  67  67  190 190 190 215 215 214 141 141 141 134 134 134 116 116 116 115 115 115 140 140 140 123 123 123 130 130 130 184 183 183 192 192 192 124 124 124 106 106 106 123 123 123 130 130 130 137 137 137 147 147 147 171 171 171 173 173 173 138 137 137 82  82  82  
128 128 128 166 167 166 182 182 182 153 153 153 124 124 124 122 122 122 133 133 133 154 154 154 150 150 150 121 122 122 99  99  99  225 225 225 176 176 176 152 152 152 145 145 145 138 138 138 131 131 131 119 119 119 96  96  96  81  81  81  64  64  64  118 118 118 182 182 182 211 211 211 183 183 183 122 122 122 129 129 129 150 150 150 82  82  82  229 229 229 219 219 220 166 166 166 132 132 132 127 127 127 108 108 108 118 118 118 144 144 144 138 138 138 144 144 144 173 174 174 167 167 167 134 134 134 79  79  79  214 214 214 215 215 215 125 124 125 120 120 120 109 109 109 104 104 104 134 134 134 154 154 154 145 145 145 144 144 144 202 202 202 156 156 156 92  92  92  103 103 103 107 107 107 144 144 144 173 173 173 182 182 182 184 184 184 153 153 153 98  98  98  
97  97  97  151 151 151 191 191 191 181 181 181 171 171 171 147 147 148 132 133 133 157 158 158 140 140 140 132 132 132 142 142 142 215 215 215 150 150 150 141 141 141 136 136 136 133 133 133 128 128 128 92  92  92  63  63  63  68  68  68  148 147 148 231 231 231 237 237 237 160 160 160 138 138 138 146 146 146 164 164 164 164 164 164 62  62  62  215 215 215 210 210 210 166 166 166 117 117 117 109 109 109 112 112 113 118 118 118 175 175 175 174 174 174 167 167 167 170 170 170 168 168 168 137 137 137 83  83  83  217 217 217 213 213 213 136 136 136 127 127 128 121 121 121 107 107 107 138 138 138 168 168 168 172 172 172 105 105 105 169 169 169 176 176 176 120 120 120 134 134 134 162 162 162 183 183 183 182 182 182 166 166 166 156 156 156 167 167 167 133 133 133 
82  82  82  196 196 196 231 231 230 211 211 211 210 210 210 201 202 202 177 177 177 181 181 181 149 149 149 137 137 137 179 179 179 157 157 157 141 141 141 124 124 124 128 128 128 116 116 116 101 101 101 46  46  46  79  79  79  164 164 164 214 214 214 203 203 203 141 141 141 142 142 142 158 158 158 155 155 155 165 165 165 146 146 146 73  73  73  184 184 184 208 208 208 206 206 206 150 150 150 101 101 101 102 102 102 119 119 119 142 142 142 151 151 151 157 157 157 171 171 171 167 167 167 129 129 129 83  83  83  211 211 211 200 201 201 141 141 141 129 128 129 117 117 117 98  98  98  125 125 125 158 158 158 162 162 162 138 138 138 111 111 111 178 178 178 153 153 153 146 146 146 171 171 171 173 173 173 161 161 161 142 142 142 120 119 119 147 147 147 134 134 134 
84  84  84  222 223 222 171 171 171 150 150 150 141 141 141 153 153 153 162 162 162 192 192 192 144 144 144 114 114 114 159 159 159 113 113 113 100 100 100 84  84  84  78  78  78  72  72  72  71  71  71  74  74  74  122 122 122 194 194 194 156 156 156 138 138 138 140 140 140 145 145 145 146 146 146 139 139 139 156 156 156 143 143 143 88  88  88  177 177 177 216 216 216 214 214 214 208 208 208 185 184 185 161 161 161 112 112 112 84  84  84  92  92  92  135 135 135 144 144 144 143 143 142 121 121 121 90  90  90  212 212 212 201 201 201 138 138 138 126 126 126 108 108 108 104 104 104 122 122 122 146 146 146 153 153 153 143 143 143 88  88  88  165 165 166 160 160 160 199 199 199 206 206 206 162 162 162 139 139 139 130 130 130 101 100 100 123 123 123 134 134 134 
81  81  81  203 203 203 165 165 165 158 158 158 150 150 150 153 153 153 161 161 161 163 163 163 116 116 116 115 115 115 134 134 134 126 126 126 120 120 120 124 124 124 114 114 114 117 117 117 103 105 105 120 120 120 159 159 159 198 198 198 161 161 161 118 118 118 131 131 131 136 136 136 121 121 121 124 124 124 136 136 136 149 149 149 79  79  79  172 171 172 197 197 197 202 202 202 194 194 194 173 173 173 195 195 195 204 204 204 190 190 190 149 149 149 116 116 116 81  81  81  91  91  91  92  92  92  97  97  97  199 199 199 198 199 198 134 134 134 122 122 122 112 112 112 117 116 117 132 132 132 147 147 147 165 164 165 152 152 152 75  75  75  158 158 158 150 150 150 171 171 171 216 216 216 186 186 186 125 125 125 114 114 114 105 104 104 116 116 116 129 128 128 
82  82  82  197 197 197 153 153 153 148 148 148 139 140 140 147 147 147 157 157 157 140 140 140 84  84  84  112 112 112 131 131 131 157 157 157 194 194 195 209 209 209 185 185 185 159 159 159 124 124 124 134 134 134 190 191 191 216 216 216 211 211 211 190 190 190 141 141 141 134 134 134 131 131 131 137 137 137 140 140 140 147 146 147 61  61  61  177 177 177 198 198 198 156 156 156 115 114 115 112 112 112 144 144 144 188 187 187 197 197 197 203 203 203 204 204 204 184 184 184 145 145 145 111 111 111 129 129 129 184 184 184 179 179 179 130 131 131 138 138 138 142 142 142 147 147 147 161 161 161 166 166 166 166 166 166 130 129 130 79  79  79  162 162 162 153 153 153 165 165 165 196 196 196 156 156 156 155 156 156 126 126 126 86  86  86  114 113 113 115 115 115 
104 104 104 207 207 207 149 149 149 140 140 140 136 136 136 136 136 136 142 142 142 121 121 120 56  56  56  101 101 101 146 146 146 208 208 208 215 215 215 207 207 207 158 157 157 125 125 125 116 116 116 129 129 129 170 170 170 192 193 193 205 205 205 207 207 205 207 208 208 190 190 190 132 132 132 126 126 126 123 123 123 99  99  99  90  90  90  187 187 187 183 183 183 102 102 102 91  91  91  98  98  98  106 106 106 116 116 116 123 123 123 139 139 139 186 187 187 173 173 173 160 160 160 145 145 145 151 151 151 179 179 179 162 162 162 123 123 123 140 140 140 155 155 155 159 159 159 170 170 170 170 170 170 159 159 159 104 104 104 92  92  91  175 175 175 151 152 151 138 138 138 145 145 145 141 141 141 137 137 137 177 177 177 147 149 147 93  93  93  89  89  89  
159 159 159 208 208 208 137 137 137 137 137 137 135 135 135 134 133 134 133 133 133 53  53  53  88  88  88  121 121 121 171 171 171 191 191 191 165 165 165 155 155 155 134 134 134 135 135 135 145 145 145 166 166 166 207 206 207 191 191 191 158 158 158 150 150 150 175 175 175 208 209 208 206 206 206 185 185 185 110 110 109 76  76  76  137 137 136 165 165 165 152 152 152 80  80  80  81  81  81  92  92  92  104 104 104 112 112 112 123 123 123 121 121 121 146 146 147 129 129 129 120 120 120 123 123 123 150 150 150 165 165 165 119 119 119 117 117 117 142 142 142 153 153 153 157 157 157 168 168 168 170 170 170 160 160 161 107 107 107 125 125 125 202 202 202 174 174 174 144 143 143 133 132 133 146 146 146 116 116 116 177 177 177 176 176 176 170 170 170 158 158 158 
207 207 207 200 200 200 138 138 139 111 111 111 106 105 105 112 111 111 52  52  52  84  84  84  139 139 139 176 176 176 169 169 169 164 164 164 148 148 148 141 141 141 138 138 138 155 155 155 163 163 163 161 161 161 201 201 201 191 191 191 189 189 189 164 164 164 132 132 132 188 188 188 192 192 192 184 184 184 123 123 123 132 132 132 152 152 152 172 172 172 139 139 139 115 115 115 109 110 110 103 103 103 100 100 100 96  96  96  108 108 109 110 110 111 141 141 141 138 138 138 127 127 127 101 101 101 159 159 159 179 179 179 177 177 177 173 173 173 137 137 137 141 141 141 146 146 146 150 150 150 156 156 156 139 139 139 122 122 122 140 140 140 207 207 207 204 204 204 145 145 144 142 141 141 143 143 143 132 132 132 152 152 152 132 132 132 167 168 167 185 185 185 
178 178 178 190 190 190 170 170 170 127 127 127 80  80  80  69  69  69  93  93  93  142 142 144 179 179 179 160 160 160 174 174 174 191 191 191 145 145 145 137 137 137 136 136 136 161 161 161 167 167 167 153 153 153 183 183 183 196 196 196 182 182 182 142 142 142 102 102 102 158 158 158 183 183 183 172 172 170 166 166 166 153 153 153 141 141 141 184 184 184 115 115 115 112 112 112 119 119 119 118 118 118 114 114 114 98  98  98  110 110 111 126 126 126 157 157 157 161 161 161 127 127 127 86  86  86  170 170 170 192 192 192 215 215 214 191 191 191 174 174 174 157 157 157 132 132 132 151 150 151 156 156 156 135 135 135 134 134 134 142 142 142 191 192 191 202 202 202 146 146 146 146 146 146 144 145 144 140 140 140 163 163 163 160 160 160 140 140 140 125 125 125 
115 115 115 142 142 142 142 142 142 120 120 120 122 122 122 116 116 116 141 141 141 172 172 172 148 148 148 153 153 153 177 177 177 186 186 186 182 182 182 146 146 146 147 147 147 162 162 162 156 156 156 153 153 153 154 154 154 186 186 186 153 153 153 106 106 106 116 116 116 146 146 146 195 195 195 149 149 149 144 144 144 150 150 150 154 154 154 183 183 183 119 119 119 113 113 113 128 128 128 130 130 130 140 140 140 140 140 140 143 143 143 147 147 147 155 155 155 156 156 156 138 138 138 110 110 110 186 188 186 232 232 232 240 240 240 222 222 221 169 169 169 147 147 147 129 129 129 111 111 111 132 132 132 116 116 116 135 135 135 134 134 134 172 172 172 200 200 200 159 159 159 166 166 166 154 155 154 137 137 137 144 144 144 148 148 148 159 159 159 152 152 151 
131 131 131 88  88  88  115 115 115 123 123 123 127 127 127 149 149 149 180 180 180 206 206 206 163 163 163 134 134 134 151 150 151 182 182 182 191 191 192 178 178 178 149 149 149 151 151 151 150 150 150 152 152 152 148 148 148 162 162 162 131 131 131 90  90  90  141 141 141 153 153 153 206 206 206 147 148 147 119 119 119 161 160 160 200 200 200 185 185 185 123 123 123 98  98  98  122 121 121 136 136 136 149 149 149 154 155 155 142 142 142 144 144 144 139 139 139 153 153 153 147 147 147 113 113 113 205 205 205 223 224 224 189 189 189 193 193 192 213 213 213 179 179 179 148 148 148 126 126 126 114 114 114 100 100 100 140 140 140 146 146 146 155 155 155 201 201 201 150 150 150 154 154 154 143 144 143 128 128 128 120 120 120 137 137 137 155 155 155 153 153 153 
114 114 114 71  71  71  134 134 134 162 162 162 175 175 175 191 191 191 220 220 221 218 218 218 190 190 190 136 136 136 151 151 151 184 184 184 193 193 193 185 185 185 186 186 186 146 146 146 139 139 139 144 144 144 151 151 151 128 128 128 108 108 108 114 114 114 173 173 173 185 185 185 161 161 161 151 151 151 164 164 164 118 118 118 195 195 195 193 193 193 180 180 180 115 115 115 124 124 124 135 135 135 141 141 141 148 148 148 132 132 132 128 128 128 132 132 132 144 144 144 147 147 147 113 113 113 197 197 197 214 215 215 168 168 168 167 167 167 170 170 170 163 163 163 190 190 190 190 189 190 215 215 215 216 216 216 214 214 215 179 179 179 156 156 156 206 206 206 152 152 152 148 148 148 137 137 137 122 122 122 132 132 131 151 151 151 158 158 158 153 153 153 
115 115 115 100 100 100 198 198 198 203 203 203 188 188 188 127 127 127 159 159 159 197 197 197 197 198 197 172 172 172 159 159 159 159 159 159 178 179 179 174 174 174 189 188 188 190 189 189 171 171 171 138 138 138 132 132 132 107 107 107 82  81  82  132 132 132 156 156 155 191 191 190 130 130 130 128 128 128 182 182 182 147 147 147 136 136 136 156 156 156 168 168 168 154 154 154 137 137 137 156 156 156 155 155 155 151 151 151 133 133 133 116 116 116 152 152 152 159 160 159 163 164 163 122 122 122 186 186 186 184 184 184 138 138 138 148 148 148 159 159 160 157 157 157 164 164 164 157 157 157 189 189 189 181 181 181 200 200 200 164 164 164 142 142 142 171 171 171 153 153 153 136 136 136 122 122 122 118 119 119 141 141 141 172 172 172 174 174 174 155 155 155 
56  56  56  137 137 137 211 212 212 249 249 249 161 161 161 141 141 141 148 148 148 143 143 143 191 191 191 203 203 203 179 179 179 149 149 149 151 151 151 163 163 163 180 180 180 183 183 183 185 185 185 159 159 159 115 115 115 86  86  86  110 110 110 152 152 152 170 170 170 201 201 201 128 128 128 134 134 134 169 169 169 168 168 169 139 139 139 130 130 130 206 206 206 214 214 214 132 133 133 134 134 134 137 137 137 148 148 148 133 133 133 128 128 128 160 160 160 164 166 166 154 154 154 120 120 120 149 149 149 145 145 145 142 142 142 157 157 157 139 139 139 117 117 117 127 127 127 135 135 135 159 159 159 152 152 152 136 136 136 148 148 148 140 140 140 131 131 131 142 141 142 124 124 124 119 119 119 128 128 128 158 158 158 175 175 175 182 182 182 155 155 155 
90  90  90  187 187 187 209 209 209 186 186 186 155 155 155 153 153 153 159 159 159 161 161 161 144 144 144 205 205 205 201 201 201 145 145 145 136 136 136 144 144 144 169 169 169 171 171 171 144 144 144 132 132 132 99  99  99  139 139 139 150 150 150 155 155 155 176 176 176 159 159 159 141 141 141 147 147 147 160 160 160 176 176 176 164 164 164 121 121 121 165 165 165 223 224 224 170 170 170 139 139 140 128 128 128 142 142 142 149 149 149 153 153 153 164 164 164 161 161 161 149 149 149 111 111 111 120 120 120 132 132 132 168 168 168 166 166 166 119 119 119 115 115 115 122 122 122 133 133 133 149 149 148 119 119 119 94  94  94  130 130 130 143 143 143 111 111 111 154 154 154 148 148 148 146 146 146 159 159 161 173 173 173 165 165 165 164 164 164 98  98  98  
161 161 161 221 222 221 208 208 208 148 148 148 153 153 153 148 148 148 153 153 153 180 180 178 148 148 148 147 147 147 201 201 201 174 174 174 132 131 132 129 129 129 143 143 143 147 147 147 119 119 119 89  89  89  150 150 150 187 187 187 184 184 184 172 172 172 159 159 159 153 153 154 146 146 146 146 146 146 150 150 150 185 185 185 201 201 201 181 181 181 129 129 129 167 167 167 207 207 207 125 125 125 96  97  97  89  89  89  95  95  95  107 107 107 95  95  95  88  88  88  89  89  89  89  89  89  114 114 114 178 178 178 195 195 195 153 153 153 115 115 115 100 100 100 101 101 101 119 119 119 131 131 131 107 107 107 67  67  67  147 147 147 137 137 137 125 125 125 137 137 136 157 157 157 161 161 161 163 163 163 152 152 152 144 144 144 140 140 140 59  59  58  
230 230 230 219 220 219 145 145 145 138 138 138 136 136 136 127 127 127 145 145 145 167 167 166 153 153 153 113 113 113 160 160 160 174 174 174 176 175 176 136 136 136 116 116 116 117 117 117 83  83  83  131 131 131 179 179 179 184 184 184 184 184 184 142 142 142 158 158 157 153 153 153 148 148 148 148 149 149 154 154 154 178 179 178 185 185 185 160 160 160 145 145 145 109 109 109 217 217 217 190 191 190 151 151 151 140 140 140 175 175 175 167 167 167 141 141 141 120 120 120 129 129 129 177 177 177 206 206 206 220 220 220 221 221 221 131 131 132 104 104 104 92  92  92  93  93  93  117 117 117 141 141 141 120 121 120 74  74  74  182 182 182 123 123 123 117 117 117 113 113 113 137 138 137 173 172 172 83  83  83  70  70  70  56  56  56  74  73  74  133 133 133 
227 227 227 167 167 167 142 143 142 138 138 138 129 129 129 113 113 113 126 126 126 149 149 149 141 141 141 130 130 130 110 110 110 149 149 149 183 183 182 167 167 167 95  95  95  91  91  91  143 143 143 175 175 175 190 190 190 181 181 181 133 133 133 145 145 145 177 177 177 164 164 164 152 152 152 153 153 153 158 158 158 135 135 135 146 146 146 112 113 113 81  81  81  110 110 110 241 241 241 231 231 231 197 197 197 193 193 193 207 207 207 202 202 202 203 203 203 204 204 204 218 218 218 235 235 235 222 222 222 207 207 207 197 197 197 110 110 110 78  78  78  85  85  85  106 106 106 142 142 141 164 164 164 130 130 130 82  82  81  167 167 167 100 100 100 99  99  99  91  91  91  82  82  82  78  78  78  82  82  82  152 152 152 177 177 177 188 188 188 208 208 208 
195 195 195 136 136 136 138 138 138 135 135 134 123 123 122 107 107 107 113 113 113 131 131 131 131 131 131 131 131 131 130 130 130 116 116 116 162 162 162 179 179 179 149 149 149 138 138 138 154 154 154 188 188 188 211 211 211 149 149 149 132 132 132 133 133 133 180 180 180 174 174 174 156 156 156 156 156 156 150 150 150 88  88  88  86  86  86  111 111 111 162 162 162 243 243 243 226 226 226 151 151 151 136 136 136 146 146 146 168 168 168 187 187 187 191 191 191 199 199 199 208 208 208 184 184 184 144 144 144 155 155 155 194 194 194 162 162 162 121 121 121 143 143 142 162 162 162 174 174 174 169 169 169 130 130 130 82  82  82  156 154 154 165 165 165 158 158 158 181 182 181 197 197 197 204 204 204 215 215 215 217 217 217 192 192 192 178 178 178 190 190 190 
172 172 172 135 135 135 138 138 137 140 140 140 122 122 122 106 106 106 122 122 122 155 155 155 142 141 141 134 134 134 130 130 130 143 143 143 108 108 108 186 186 186 161 161 162 157 157 157 146 146 146 188 188 188 149 149 149 152 152 152 146 146 146 142 142 142 177 177 177 181 181 181 144 144 144 139 139 139 98  98  98  84  84  84  174 175 175 220 221 221 248 248 248 198 198 198 148 148 148 155 154 154 138 138 138 139 139 139 159 159 159 178 178 178 194 194 194 193 193 193 171 171 171 153 154 154 138 138 138 125 125 125 164 164 164 213 213 213 159 159 159 173 173 173 192 192 192 177 177 177 136 136 136 117 117 117 84  84  84  147 147 147 220 219 219 226 226 226 232 232 232 212 212 212 183 183 183 140 140 140 124 124 124 128 128 128 136 136 136 177 177 177 
167 167 167 132 132 132 116 116 116 128 128 128 124 124 124 126 125 126 150 150 150 171 171 171 151 151 151 146 146 146 135 135 135 139 139 139 91  91  92  195 195 195 183 183 183 180 180 180 166 166 166 208 208 208 167 167 167 134 134 134 129 129 129 135 135 135 163 163 163 161 160 160 127 127 127 123 123 123 95  95  95  108 108 108 205 205 205 228 228 228 186 186 186 144 144 144 137 137 137 133 133 133 118 118 118 143 143 143 167 167 167 186 186 186 175 175 175 152 152 152 152 152 152 133 135 135 147 147 147 166 166 166 125 125 125 218 218 218 188 188 188 160 160 161 165 165 165 165 165 165 94  93  94  71  71  71  100 100 100 183 183 183 232 232 232 183 183 183 146 146 146 131 131 131 128 128 128 117 117 117 120 120 120 126 126 126 74  74  74  164 164 164 
155 155 155 159 159 159 103 103 103 112 112 112 125 125 125 135 135 135 148 148 148 160 160 160 151 151 151 134 134 134 119 119 119 118 118 118 105 105 105 193 194 193 201 201 201 139 139 139 120 120 120 170 170 170 192 192 192 196 196 196 154 154 154 111 113 113 103 103 103 132 132 132 116 116 116 129 128 128 112 112 112 102 102 102 200 200 200 229 229 229 171 171 171 117 117 117 109 109 109 117 117 117 119 119 119 133 133 133 147 147 147 136 136 136 141 141 141 139 139 139 143 143 143 132 132 132 136 136 136 175 175 176 152 152 152 152 152 152 188 188 188 119 119 119 124 125 125 83  83  84  106 106 106 166 165 166 176 176 176 205 205 205 169 169 169 153 153 153 156 156 156 153 153 153 154 154 154 145 145 145 129 129 128 119 119 119 65  65  65  125 125 125 
150 150 150 169 169 169 106 106 106 108 108 108 121 121 121 128 127 128 137 137 137 143 143 143 148 148 148 135 135 135 119 119 119 81  81  81  159 159 159 215 215 215 170 170 170 124 124 124 154 154 154 176 176 175 154 154 154 154 154 154 186 186 186 178 178 178 160 160 160 158 158 158 123 123 123 120 120 120 115 115 115 118 118 118 193 193 193 218 218 218 195 195 195 168 168 168 109 109 109 95  95  95  110 110 110 131 131 131 118 118 118 114 114 113 132 132 132 135 135 135 134 134 134 132 132 132 139 139 139 184 184 184 164 164 164 106 106 106 167 165 165 177 178 177 184 184 184 167 167 167 231 231 231 199 199 199 172 172 172 211 211 209 179 179 179 140 140 140 139 139 139 141 141 141 139 139 139 138 138 138 148 148 148 147 147 147 102 102 102 98  99  99  
192 192 192 174 174 174 120 120 120 102 102 102 118 118 118 120 120 120 129 128 128 141 141 141 145 145 145 127 127 127 91  91  91  120 120 120 203 204 203 193 193 193 109 109 109 131 131 131 162 162 162 159 159 159 159 159 159 173 173 173 134 133 134 128 128 128 162 162 162 191 191 191 203 203 203 174 174 174 146 146 146 125 125 125 154 156 154 167 167 167 180 180 180 178 178 178 175 175 175 162 163 162 136 136 136 130 130 130 102 102 102 96  96  96  109 109 109 128 128 128 137 137 137 139 139 139 142 142 142 171 171 171 149 149 149 84  84  84  154 154 154 203 203 203 235 235 235 245 245 245 191 191 191 133 133 133 106 106 106 189 189 189 214 214 214 151 151 151 139 139 139 138 138 138 134 134 134 127 127 127 136 136 136 142 142 142 130 130 130 82  82  82  
205 205 205 195 193 193 136 136 136 83  83  83  85  85  85  91  91  91  112 111 111 129 129 129 129 129 129 122 122 122 67  67  67  168 168 167 210 210 210 138 138 138 106 106 106 151 151 151 164 164 164 155 155 155 154 154 154 150 150 150 118 118 118 95  95  95  164 164 164 197 197 197 199 199 199 186 186 186 147 147 147 121 121 121 138 138 138 150 150 150 151 151 151 165 165 165 180 180 180 168 168 168 148 148 148 139 139 139 92  92  92  65  65  65  86  86  86  119 119 119 139 139 139 130 130 130 139 139 140 150 150 150 134 134 134 69  69  69  169 169 169 215 215 215 198 198 198 149 149 149 133 133 133 129 129 129 105 105 105 158 158 158 236 236 236 203 203 203 131 131 131 132 133 132 132 132 132 122 122 122 133 133 133 136 136 136 137 137 137 80  80  80  
183 183 183 197 197 197 163 163 163 136 137 137 111 111 111 107 107 107 93  93  93  79  79  79  69  69  69  78  78  78  109 109 109 176 176 176 165 165 165 87  87  87  117 117 117 137 137 137 136 136 136 122 122 122 125 125 125 75  75  74  63  63  63  129 129 129 177 177 177 148 148 148 110 110 110 94  94  94  95  95  95  111 111 111 176 176 176 168 168 168 127 127 127 149 149 149 167 167 167 154 154 154 118 118 118 148 148 148 126 126 126 99  99  99  108 108 108 117 117 117 116 116 116 117 117 117 129 129 129 139 138 139 66  66  66  107 107 107 189 189 189 151 151 151 117 117 117 137 137 137 145 145 145 150 150 150 136 136 136 102 102 102 157 157 157 199 199 199 152 152 152 122 122 122 135 135 135 128 128 128 135 135 135 121 121 121 136 136 136 97  97  97  
