P3
64 64
255
49 42 33 59 51 39 61 52 40 63 54 42 57 49 38 62 53 41 63 55 43 60 52 40 56 48 37 52 46 36 57 50 39 63 55 43 64 56 43 65 56 43 66 59 46 63 57 44 63 56 44 62 53 41 59 51 40 61 53 41 64 56 43 59 51 40 62 55 43 63 56 43 72 64 50 69 59 46 65 56 43 61 52 40 58 50 39 52 44 34 49 41 32 45 39 30 52 44 35 62 53 41 64 56 43 68 58 45 63 53 42 62 53 42 59 51 40 61 53 42 63 55 43 63 56 44 68 59 46 65 56 44 63 54 42 56 48 37 58 49 38 54 46 36 58 49 38 54 47 36 57 50 38 57 50 38 61 53 41 62 55 43 62 55 43 66 61 47 59 54 42 58 53 41 60 53 41 66 57 44 63 54 42 60 52 40 63 56 43 65 59 46 
59 51 39 87 75 58 92 79 61 92 79 61 87 76 60 90 79 62 91 81 63 90 77 60 90 77 60 87 76 59 90 78 61 89 78 61 91 78 61 88 76 59 84 75 58 62 54 42 61 54 42 85 73 57 87 74 58 94 81 64 98 86 67 91 81 63 93 82 64 92 82 64 101 89 70 93 81 64 86 74 57 83 71 55 84 72 56 83 71 55 79 68 53 59 50 39 62 53 41 86 75 58 94 81 63 95 82 64 92 79 61 86 74 57 82 70 55 84 74 57 84 74 58 87 77 61 91 80 62 91 80 62 88 76 59 84 72 56 79 68 53 59 50 39 59 51 39 80 69 53 89 79 62 93 83 65 94 84 65 88 77 61 86 76 59 86 77 60 86 77 60 87 77 60 92 80 62 95 81 63 93 80 62 85 74 57 81 71 55 61 54 42 
67 57 45 96 82 64 100 85 66 102 87 68 101 89 70 103 90 71 103 90 70 103 88 69 107 92 71 112 98 76 109 95 74 101 89 69 101 86 67 98 85 66 94 83 64 65 57 44 63 54 42 92 79 61 98 86 69 111 99 79 114 102 82 105 93 72 102 89 69 104 91 71 110 96 75 101 89 69 94 81 63 89 77 60 92 79 61 89 76 59 93 80 62 64 55 43 67 58 45 88 77 60 103 90 70 105 91 70 105 90 70 96 82 64 90 77 60 95 83 65 97 85 66 104 92 72 105 91 71 105 91 71 101 88 68 99 84 65 88 76 59 64 56 44 59 52 40 91 80 62 103 93 72 115 103 81 115 103 81 104 90 70 105 92 72 97 85 66 104 93 72 104 90 70 114 101 78 111 96 75 108 94 73 93 79 62 84 72 56 58 50 38 
56 48 37 85 73 57 97 83 65 126 108 84 131 115 90 137 119 93 128 113 88 126 108 84 129 111 86 135 116 90 136 117 91 120 103 80 122 106 82 101 88 69 97 86 67 64 56 44 62 54 42 92 79 61 105 92 74 137 122 98 146 130 105 135 119 93 135 117 91 134 118 91 142 124 97 128 112 87 123 105 82 118 103 80 118 102 80 94 81 63 91 77 61 64 55 43 69 60 47 90 78 61 107 93 72 123 106 82 137 117 91 129 111 86 121 103 80 116 99 78 118 101 78 133 115 90 140 122 95 140 121 95 127 110 86 106 91 71 88 75 58 63 55 43 61 53 41 98 86 67 112 99 78 144 129 101 142 127 99 134 116 91 126 110 85 128 111 86 134 118 91 136 118 92 140 123 96 135 117 91 136 119 92 99 85 67 88 76 59 58 50 38 
55 47 37 83 71 55 93 80 62 120 102 80 125 107 83 133 114 89 130 111 86 123 105 82 125 107 83 135 117 91 139 121 94 126 109 85 124 107 83 101 89 69 97 86 67 65 57 45 66 57 44 94 80 62 106 93 75 133 117 94 138 122 98 126 109 84 130 113 88 131 116 90 137 120 93 128 110 86 125 107 83 122 106 82 118 102 80 96 83 65 92 79 61 63 54 42 68 59 46 94 81 63 112 97 76 128 110 86 133 114 89 132 113 88 126 107 83 119 102 79 119 102 79 134 118 91 137 121 94 137 123 95 126 111 86 107 93 73 90 77 60 66 58 45 65 57 44 98 85 66 105 91 71 136 118 92 135 117 91 132 113 88 127 110 86 137 121 94 145 130 101 142 126 98 140 124 97 130 112 88 127 111 86 96 83 64 90 77 60 64 55 42 
50 43 33 79 68 53 93 79 62 102 87 68 101 86 67 102 88 68 99 85 66 99 86 67 104 91 71 108 96 75 112 99 77 102 89 69 107 92 71 94 82 64 91 80 62 63 55 43 64 56 43 90 77 60 95 82 64 108 95 74 111 97 75 102 89 70 103 90 70 101 89 69 105 92 72 100 88 69 102 89 70 109 96 76 109 94 73 108 95 74 98 85 67 67 59 46 69 59 46 100 86 67 112 96 75 112 96 75 110 95 74 112 97 76 102 89 69 98 86 67 91 79 61 100 89 69 99 88 68 104 93 73 105 92 71 103 90 70 94 81 63 64 56 43 63 55 43 86 74 58 93 80 62 103 88 69 103 89 69 97 83 65 94 81 63 102 89 69 114 102 79 108 96 75 105 92 72 98 84 66 103 88 69 91 79 61 88 76 59 64 55 43 
51 44 34 78 67 52 90 77 60 90 77 60 89 76 59 91 78 61 94 81 63 92 80 62 94 82 64 95 84 65 97 86 67 93 81 63 96 83 64 89 77 60 83 72 56 62 54 42 65 56 44 88 76 60 87 74 58 88 77 60 86 75 59 84 74 57 87 77 60 91 80 62 92 81 63 91 80 63 90 80 63 95 83 65 97 85 66 101 90 70 95 85 66 66 58 46 68 58 45 91 79 61 93 80 62 87 75 58 81 69 54 88 76 60 86 75 58 92 81 63 87 76 59 92 81 63 84 74 57 90 80 62 93 81 63 96 84 65 88 76 59 58 50 39 59 51 40 78 69 53 90 79 62 94 82 64 96 82 64 84 72 56 86 74 57 84 73 57 94 83 64 88 78 61 91 79 61 89 77 60 87 75 58 86 74 57 83 71 55 64 55 43 
51 44 34 59 51 39 65 56 43 67 58 45 66 56 43 63 53 42 63 53 42 62 53 42 63 56 43 63 55 43 63 55 43 63 54 42 67 59 46 65 57 45 65 58 45 60 52 41 63 55 43 65 57 44 64 56 43 64 56 44 63 56 43 61 54 42 59 51 40 57 50 39 59 51 40 64 56 44 68 60 47 70 62 48 71 62 48 71 63 49 66 59 47 61 54 42 60 52 40 63 54 42 60 52 40 59 50 39 58 50 39 62 54 42 61 54 42 64 56 44 62 54 42 64 55 43 62 53 41 64 55 43 68 59 46 68 58 45 63 55 43 52 45 35 52 45 35 59 52 41 66 59 46 68 60 47 68 59 46 62 53 42 63 55 43 60 52 40 64 55 42 62 53 41 64 55 43 63 54 42 63 55 43 62 54 42 60 52 40 54 46 36 
56 49 38 62 53 41 64 55 43 68 58 45 64 55 43 64 56 43 62 54 42 54 47 37 53 46 36 59 51 40 64 55 43 64 55 43 65 57 45 62 55 43 66 59 46 66 59 46 72 64 50 72 64 51 69 61 48 63 56 44 58 50 39 58 50 39 59 52 41 55 49 38 58 51 40 65 56 44 67 58 45 63 54 42 65 56 44 65 57 44 66 57 45 64 55 43 66 56 44 63 54 42 58 50 39 55 47 37 55 47 37 59 51 40 62 54 42 60 52 40 60 51 40 64 54 42 67 57 44 66 56 44 69 59 46 64 55 43 59 50 39 54 46 36 59 50 39 67 59 47 72 64 50 71 63 49 70 60 47 67 58 45 64 56 44 57 49 38 58 50 39 64 56 43 65 56 43 62 53 41 60 52 41 59 51 40 60 52 40 60 52 40 
90 77 60 93 80 62 95 82 64 96 82 64 92 79 61 92 82 64 85 75 59 60 53 41 59 50 39 82 70 55 89 76 59 87 75 58 92 82 64 89 79 61 92 83 65 93 84 65 101 90 70 102 91 72 101 90 71 97 86 68 95 82 64 86 74 57 80 70 55 57 50 39 64 56 43 90 77 60 94 81 63 87 75 58 92 79 62 95 82 64 95 81 64 92 79 61 92 80 62 92 79 62 92 79 62 88 75 58 93 81 63 87 77 60 81 73 56 55 48 37 57 49 38 82 70 55 93 80 62 95 81 63 101 87 67 94 80 62 85 73 57 81 69 54 86 74 57 93 81 63 94 81 63 92 80 62 94 81 63 96 83 64 89 77 60 64 55 43 64 55 43 89 77 60 91 78 61 84 72 56 87 76 59 85 74 58 89 78 61 89 77 60 
93 80 62 101 86 67 106 91 71 108 92 72 101 86 67 99 87 68 91 80 62 64 56 44 61 53 41 85 73 57 96 83 65 102 88 69 109 95 74 105 91 71 103 91 71 103 93 72 104 93 72 105 94 75 109 96 76 106 93 74 104 89 69 89 76 59 87 77 59 63 55 43 71 63 49 100 88 68 105 92 72 99 85 66 105 90 70 108 92 72 111 96 75 107 93 72 110 96 75 109 95 74 111 96 74 107 92 72 112 97 75 99 87 68 85 76 59 56 49 38 59 51 40 89 76 59 97 83 65 102 87 68 109 94 73 107 92 72 100 86 67 96 82 64 98 84 65 101 87 67 104 91 71 102 89 70 106 93 73 98 84 66 94 81 63 63 54 42 66 57 44 91 79 61 99 85 66 99 85 66 104 89 69 103 88 69 110 95 74 116 100 78 
133 115 89 136 116 90 135 116 90 137 117 91 128 110 86 101 87 68 91 80 62 65 57 44 63 54 42 79 67 53 89 77 60 121 105 81 144 128 100 143 126 98 135 119 93 128 111 86 118 103 79 123 106 83 130 111 86 135 115 90 131 112 88 98 84 65 86 74 57 62 54 42 69 62 48 98 88 68 106 95 74 123 106 83 138 118 92 140 121 94 140 123 97 144 130 102 140 126 99 137 121 94 136 117 91 137 118 91 139 121 94 102 88 69 86 75 59 57 49 38 59 50 39 90 78 61 99 87 68 126 111 87 137 119 93 138 120 93 135 118 91 129 111 86 130 111 86 125 107 83 126 112 88 123 109 85 126 111 87 100 86 67 93 80 62 61 53 41 62 53 41 87 75 58 101 86 67 125 108 83 138 118 92 137 118 91 142 122 95 146 126 98 
128 109 85 132 113 88 126 107 84 132 112 88 126 108 84 97 83 65 86 74 58 59 52 40 61 53 41 77 66 51 86 75 58 121 105 81 144 127 99 149 130 102 144 126 98 137 117 91 120 103 80 119 102 79 126 107 84 131 112 87 126 108 84 98 84 65 85 73 57 63 54 42 68 60 47 100 89 70 111 99 77 127 110 86 137 118 91 139 119 93 142 125 98 145 130 102 135 122 96 133 118 91 135 116 91 140 120 93 137 118 92 104 89 70 92 79 61 64 56 43 65 56 44 96 84 66 99 86 68 118 103 81 124 108 84 136 118 92 138 120 93 137 118 91 132 113 88 129 111 86 134 119 93 133 118 92 131 115 91 104 89 70 95 82 64 63 54 42 60 52 40 86 74 57 99 84 66 125 108 83 130 111 86 136 116 91 136 117 91 139 120 93 
115 99 77 111 96 74 100 86 67 102 88 68 108 94 73 100 87 68 91 80 62 59 51 40 62 53 42 79 68 53 89 76 60 101 88 68 112 99 77 112 99 77 109 95 74 112 96 75 104 89 70 102 88 68 99 85 66 103 89 69 107 92 71 94 81 63 85 73 57 63 54 42 67 59 46 92 81 63 93 82 64 97 83 64 103 88 69 108 94 73 112 100 79 118 106 84 104 92 73 91 79 62 90 78 60 98 84 66 107 92 71 101 87 68 97 84 65 71 61 48 69 59 46 98 87 68 100 88 69 102 90 70 103 90 70 109 95 74 114 99 77 113 98 76 109 94 73 102 88 68 104 91 71 103 90 70 110 97 75 104 90 70 95 82 64 63 54 42 59 50 39 87 75 58 94 81 63 104 91 70 100 88 68 104 91 71 104 89 70 110 95 74 
96 82 64 94 81 63 87 75 58 88 76 59 92 80 62 91 80 62 82 71 55 54 46 36 56 49 38 77 66 51 86 74 58 88 77 60 91 79 61 87 75 59 89 76 59 94 80 62 94 81 63 93 80 62 92 80 62 91 79 61 95 81 64 88 76 59 80 69 54 60 52 41 63 54 42 88 76 59 87 75 58 88 77 60 92 80 62 96 85 66 94 83 64 94 83 64 84 71 56 78 67 52 79 67 53 88 76 59 94 81 63 97 83 65 90 77 60 66 57 44 64 55 43 87 75 59 89 76 59 87 74 58 87 75 58 92 79 61 96 82 64 99 85 66 94 81 64 93 81 63 93 82 64 98 87 67 99 87 67 100 87 67 88 76 59 62 54 41 60 52 40 86 75 58 91 78 61 89 78 61 87 76 59 90 78 61 90 77 60 92 79 62 
68 59 45 67 58 45 63 55 43 64 56 43 66 58 45 66 58 45 63 56 43 55 47 37 56 48 37 59 51 40 62 54 42 64 56 43 61 53 41 56 48 37 55 47 37 60 51 40 61 53 41 63 54 42 65 56 44 66 57 45 68 59 46 64 56 43 62 54 42 54 47 36 56 49 38 62 54 42 63 55 43 63 56 43 65 57 44 66 59 46 65 58 45 64 56 43 58 50 39 54 47 36 56 49 38 62 54 42 64 56 43 68 59 48 66 58 46 60 53 43 57 48 38 62 53 41 65 56 43 65 56 43 65 56 43 65 56 43 66 56 43 67 59 46 68 60 47 69 63 49 68 62 48 68 60 47 69 61 47 69 59 46 64 55 43 55 47 37 56 48 38 62 54 42 66 57 44 63 55 43 62 54 42 59 52 40 62 53 42 66 57 44 
54 47 36 62 54 41 64 56 43 64 56 43 64 56 43 65 56 44 62 54 42 62 53 42 61 53 41 65 56 44 63 54 42 65 56 43 62 54 42 59 51 40 57 49 38 54 46 36 55 47 37 61 53 41 64 55 43 64 55 43 64 55 43 65 57 44 63 55 42 61 53 42 59 52 40 68 61 48 64 57 45 64 58 45 61 54 42 66 59 46 64 57 44 57 50 39 54 46 36 58 50 39 62 54 42 67 60 47 64 57 45 65 58 47 62 54 43 61 53 43 59 51 40 60 52 40 63 55 43 63 54 42 64 55 43 63 54 42 62 53 41 57 50 39 59 52 41 69 62 48 68 61 47 69 60 47 66 57 45 66 57 45 61 53 41 57 49 38 59 51 40 63 56 44 67 60 47 64 57 45 63 56 43 61 53 41 65 57 44 61 54 42 
59 51 39 89 79 62 98 87 68 95 84 66 95 83 65 100 89 69 98 87 67 98 87 67 97 84 65 101 87 67 91 78 61 89 77 60 88 76 59 88 77 59 80 69 54 56 48 37 58 50 39 82 70 55 89 77 59 90 77 60 95 83 65 97 85 67 94 83 64 88 76 59 90 79 61 94 86 67 93 85 67 88 78 61 86 74 58 94 84 65 91 81 63 65 57 45 59 50 39 79 68 53 84 74 57 92 82 64 89 80 62 88 79 64 85 75 61 85 74 60 87 74 58 89 77 60 94 81 63 88 76 59 88 75 59 86 74 57 83 71 55 61 53 41 63 56 44 94 84 65 94 84 65 95 82 64 94 81 63 91 79 61 85 74 57 77 66 51 82 70 54 89 78 61 96 86 67 93 84 66 88 77 60 86 74 58 88 77 60 68 60 46 
59 51 40 91 79 62 99 87 68 103 90 71 102 88 68 109 96 75 104 92 71 108 95 74 108 93 72 116 99 77 111 96 75 110 97 76 111 101 80 105 94 75 94 84 65 61 53 41 65 56 43 94 81 63 103 89 69 105 90 70 106 91 71 109 96 75 108 95 74 110 95 74 108 95 74 107 96 76 103 93 73 100 89 70 97 84 65 99 87 68 94 83 65 69 61 48 65 56 43 90 78 61 92 79 61 102 89 70 104 91 72 100 88 69 102 90 72 96 84 67 101 88 71 95 82 63 103 88 69 99 85 66 96 82 64 89 76 59 83 71 55 62 53 41 64 55 42 94 81 63 96 83 64 98 84 65 100 86 67 101 87 68 100 88 68 96 85 66 103 90 70 110 97 76 112 100 79 114 102 80 108 95 74 105 91 71 98 85 66 70 62 48 
62 53 41 92 81 64 96 84 66 122 106 83 127 111 86 140 125 97 136 123 95 140 124 97 138 121 94 142 122 95 135 116 91 139 123 97 134 121 96 110 98 78 98 85 67 64 55 43 68 59 46 96 83 64 113 98 76 139 123 95 146 130 102 143 127 99 140 123 95 135 117 91 137 119 93 126 111 86 130 115 90 128 110 86 131 114 89 107 93 73 95 83 65 66 57 45 64 55 43 92 80 62 102 88 68 125 107 83 130 112 87 122 105 82 127 112 90 122 107 86 126 111 88 121 104 81 132 113 88 131 113 88 121 104 81 90 78 60 78 67 52 60 52 40 66 57 45 98 84 66 106 91 71 125 108 84 132 114 89 130 112 87 132 116 90 128 112 88 134 118 91 135 116 91 138 119 93 140 121 94 129 110 86 108 93 72 94 81 63 68 58 45 
61 52 41 91 78 61 94 81 63 113 97 75 116 101 78 125 109 84 123 109 84 126 110 86 132 114 89 136 116 90 140 121 94 145 128 101 142 127 101 107 96 76 94 82 64 62 53 41 66 57 44 97 84 65 117 101 79 145 129 101 143 126 98 142 125 97 136 118 91 138 119 93 136 116 90 133 114 88 133 115 90 132 114 88 128 112 87 106 92 71 96 83 65 68 59 46 69 60 47 96 84 65 106 90 71 116 100 77 124 107 83 121 105 82 137 121 97 133 116 93 130 114 91 121 104 81 130 114 88 142 125 97 132 117 91 99 85 67 80 68 53 59 50 39 62 53 41 87 74 58 101 88 70 123 108 85 137 121 95 128 111 86 134 118 91 130 114 89 140 122 95 138 118 91 140 119 93 138 119 92 132 114 89 114 100 78 100 87 68 68 59 46 
62 53 42 91 78 61 96 83 64 100 86 67 105 93 72 105 93 72 106 95 74 103 89 70 106 93 72 101 87 68 101 87 68 106 91 71 111 95 74 102 87 68 89 76 59 60 51 40 64 55 43 95 83 64 109 97 75 117 106 82 117 107 85 111 99 79 103 90 72 101 87 68 106 92 72 105 91 71 99 86 67 93 79 62 99 86 67 105 93 74 98 87 69 63 56 44 63 54 42 92 79 61 101 87 68 98 85 66 93 81 63 99 87 68 101 87 68 104 90 70 100 86 67 102 87 68 109 96 74 117 103 80 115 101 78 94 81 63 82 71 55 58 50 39 62 54 42 87 75 58 99 87 68 113 100 78 115 101 80 103 89 69 96 82 64 94 80 63 103 88 69 103 88 68 106 90 70 103 88 69 105 91 71 105 93 72 95 84 65 64 56 43 
60 51 40 84 72 56 93 80 62 92 79 61 97 84 66 91 80 62 89 77 61 81 69 54 84 72 56 83 71 56 90 78 61 91 78 61 92 80 62 89 76 59 77 66 51 55 47 36 56 48 37 83 72 56 92 81 63 94 83 65 93 83 66 93 82 65 88 77 62 94 81 63 95 84 65 96 84 65 88 77 60 84 71 56 84 72 56 91 79 63 90 79 62 64 56 44 62 54 42 84 73 57 90 78 61 85 76 59 83 74 57 88 77 60 92 79 62 93 80 62 92 80 62 90 78 61 96 85 66 100 87 68 99 87 68 89 77 60 82 70 55 60 51 40 58 49 39 74 64 49 80 70 55 90 79 62 95 83 65 87 74 58 85 73 57 78 67 53 90 77 61 87 75 58 92 79 61 90 78 61 94 81 64 96 84 66 88 77 60 62 54 41 
58 50 38 60 51 40 59 51 40 61 53 41 67 58 45 64 56 44 62 54 42 57 49 38 57 49 38 59 50 39 59 52 40 64 56 43 66 57 44 69 60 47 63 55 43 59 51 40 55 47 37 60 51 40 59 51 40 61 53 41 62 56 44 65 56 45 65 58 46 67 59 46 67 59 47 66 59 46 61 54 42 59 51 40 59 50 39 63 55 44 65 57 45 57 50 40 56 48 37 61 53 41 66 58 45 64 57 44 60 54 42 61 53 41 62 53 41 61 52 41 62 54 42 59 52 40 63 55 43 63 53 42 63 54 42 58 50 39 58 50 39 57 49 38 54 46 36 56 48 37 53 46 36 59 51 40 59 51 40 60 52 40 59 51 40 57 49 38 59 51 40 60 52 40 63 54 42 65 56 44 66 57 44 65 56 43 61 53 41 58 49 38 
65 56 43 63 54 42 58 50 39 57 49 38 63 54 42 64 56 43 61 52 41 52 45 35 51 44 34 60 53 41 65 57 44 70 63 49 66 58 45 67 59 46 63 55 43 64 56 44 59 50 39 60 51 40 57 49 38 57 49 38 58 50 39 64 56 43 67 59 46 63 56 43 60 53 42 64 57 44 63 55 43 64 56 43 61 53 41 63 54 42 65 56 43 64 55 43 65 56 44 65 57 44 68 60 47 66 58 45 64 56 43 62 53 42 66 57 44 59 51 40 61 54 42 61 53 41 65 56 44 63 53 42 63 54 42 62 53 41 63 54 42 66 57 45 61 53 41 57 49 38 53 46 36 58 49 38 61 53 41 62 53 41 61 53 41 53 46 36 55 49 38 61 53 42 66 58 46 64 56 43 65 56 43 62 53 42 66 56 44 67 58 45 
87 75 58 91 78 61 87 74 57 82 71 55 84 72 56 89 78 61 85 74 58 61 54 42 59 51 40 89 79 61 92 81 63 98 87 68 94 82 64 100 90 70 100 88 68 100 89 69 92 80 62 92 80 62 86 74 57 88 76 59 88 77 60 94 81 64 91 80 63 65 57 45 62 54 42 87 76 59 89 77 60 92 81 63 91 78 61 93 80 62 91 78 61 88 75 58 89 77 60 92 81 63 95 84 65 88 77 60 86 74 57 87 74 58 89 77 60 62 54 42 61 53 41 82 70 55 91 78 61 93 80 62 91 79 61 91 78 61 88 76 59 91 78 61 87 75 58 86 74 57 86 76 59 90 79 61 96 85 67 97 85 67 88 77 60 62 53 41 58 51 40 81 71 56 86 76 60 87 74 57 92 79 61 91 78 61 99 85 66 101 86 67 
103 89 69 105 91 71 101 88 68 97 84 65 98 85 66 102 90 70 93 81 63 64 56 43 60 52 40 94 82 64 105 93 72 117 106 83 110 98 76 113 102 80 110 96 75 108 95 74 101 88 68 103 90 70 102 88 68 99 85 66 94 81 63 90 78 61 88 77 60 63 55 43 62 54 42 89 76 59 95 82 64 107 92 71 108 92 72 110 94 73 105 90 70 102 87 68 101 87 68 104 92 71 109 96 75 106 94 73 102 89 69 95 82 64 94 82 64 66 57 44 64 55 43 91 78 61 107 93 73 120 106 83 116 103 80 110 96 74 104 90 70 106 91 71 100 86 67 99 85 66 101 89 69 112 98 76 115 103 80 106 93 73 97 85 67 64 55 43 60 53 42 83 73 57 94 85 67 102 92 71 109 97 76 108 95 74 115 99 77 116 99 77 
130 117 91 128 112 87 123 106 83 123 106 83 111 95 74 99 86 68 86 75 58 63 55 42 57 49 38 87 74 58 105 90 70 136 120 94 138 121 95 142 126 98 138 121 93 137 120 93 130 112 88 137 120 93 133 116 90 135 118 91 122 105 81 98 84 66 89 78 61 62 54 42 60 53 41 84 72 56 100 85 66 134 115 89 144 123 96 143 123 95 132 112 88 131 112 87 124 106 83 125 107 84 129 112 87 126 109 85 124 108 84 98 85 66 97 85 66 66 58 45 61 53 41 88 75 59 99 87 68 139 124 97 140 126 98 144 127 98 129 111 86 125 107 83 117 100 78 123 105 81 128 112 88 142 124 97 134 120 94 107 94 73 94 83 65 65 56 43 61 53 41 81 70 54 97 85 67 130 117 91 140 125 97 141 123 96 142 122 95 150 129 100 
144 128 100 128 112 88 115 99 78 116 100 78 109 94 74 99 86 67 85 74 57 62 53 41 57 50 38 85 74 57 106 92 72 139 122 95 140 123 97 140 124 97 133 114 89 135 119 93 128 113 88 135 120 93 130 113 88 126 109 85 114 98 76 95 82 64 91 80 62 61 53 41 62 54 42 84 72 56 103 88 69 128 110 86 136 117 91 138 118 92 136 117 91 142 123 96 128 112 87 128 112 87 127 111 86 139 123 95 134 118 92 107 93 73 98 85 67 69 60 47 62 54 42 90 77 60 98 86 67 139 125 97 140 125 97 142 124 97 132 112 88 130 112 87 125 107 83 121 104 81 117 100 78 130 111 86 124 106 83 99 85 66 86 74 58 61 53 41 62 54 42 81 70 54 98 86 68 125 112 88 132 118 92 130 114 89 131 112 87 138 119 93 
110 98 76 98 86 67 91 78 60 94 81 63 97 85 66 100 90 70 91 82 64 65 58 45 62 53 42 88 77 60 101 87 68 108 93 72 105 90 70 101 87 68 96 82 64 103 90 71 100 88 68 108 96 75 107 94 73 107 94 73 106 92 71 103 89 69 98 84 65 61 52 41 59 51 40 84 72 56 101 86 67 106 91 71 104 89 70 103 89 69 104 89 69 109 95 74 97 84 65 95 83 65 90 78 61 105 93 72 109 96 74 112 100 77 104 91 71 72 63 49 61 52 41 84 73 57 84 73 57 103 90 70 105 91 71 114 99 77 112 97 75 111 96 75 106 91 71 102 88 68 97 83 65 99 85 66 100 86 66 96 82 64 87 74 58 60 52 40 61 53 41 81 70 54 92 79 61 94 80 63 97 83 65 99 85 66 105 90 70 113 98 76 
94 81 63 89 77 60 89 78 61 87 76 59 94 84 65 97 87 68 95 85 66 66 59 46 65 56 44 88 76 59 94 81 63 94 81 63 92 79 61 91 78 61 87 75 58 91 80 62 90 78 61 91 80 62 92 80 62 91 81 63 91 80 62 88 77 60 82 70 54 54 46 36 56 48 37 80 68 53 92 79 62 88 76 59 82 71 55 81 69 54 86 74 57 92 80 62 87 76 59 86 75 58 81 70 54 90 80 62 88 77 60 98 88 68 91 80 62 68 59 46 57 49 38 78 67 52 86 74 58 95 82 64 98 85 66 98 84 65 99 85 67 99 85 67 95 82 64 93 80 62 84 72 56 86 74 57 90 78 61 94 81 63 88 76 59 61 52 41 59 50 39 76 65 51 84 72 56 84 72 56 85 73 57 86 74 58 87 75 59 89 76 59 
61 52 40 60 51 40 61 53 41 58 51 40 64 59 46 66 60 47 68 62 48 60 54 43 59 52 41 60 52 41 56 48 38 57 49 38 60 52 40 61 52 40 57 49 38 58 51 40 59 52 40 63 55 43 65 56 44 67 60 47 65 58 45 63 56 43 59 51 40 50 44 34 50 43 33 58 50 39 66 57 45 63 55 43 57 49 38 53 46 35 55 47 37 55 47 37 58 50 39 59 51 40 59 51 40 60 52 40 56 48 38 62 56 43 63 56 44 59 52 41 52 44 35 55 47 36 60 52 40 61 52 41 65 57 44 65 57 44 69 60 47 63 55 42 62 53 41 64 56 43 66 58 45 65 57 45 65 57 45 66 57 44 66 57 45 56 48 37 51 43 34 56 49 38 63 54 42 64 56 43 58 50 39 57 49 38 58 50 39 61 53 41 
50 43 34 57 49 38 62 54 42 56 49 38 61 55 43 62 55 43 69 61 47 68 60 47 68 61 48 63 56 44 57 50 38 56 48 37 60 52 40 62 53 41 60 52 40 55 48 38 56 49 38 63 54 42 62 53 41 65 57 44 63 56 43 61 54 42 58 50 39 53 46 36 56 48 37 56 48 38 63 55 43 58 51 40 58 50 39 52 44 34 55 48 37 49 42 33 56 48 38 62 53 41 66 57 44 64 56 44 58 51 40 61 54 42 60 53 41 63 56 44 61 53 41 64 56 43 66 57 44 63 54 42 63 56 43 64 56 43 65 57 44 55 47 37 57 48 38 62 53 41 66 58 45 65 57 44 68 60 47 68 59 46 68 59 46 63 54 42 59 51 40 60 52 41 64 56 43 66 57 45 62 53 41 56 48 37 53 46 35 50 43 33 
57 49 38 80 68 53 84 72 56 77 66 51 86 76 60 90 79 62 98 87 67 95 84 66 99 88 69 94 84 67 88 77 60 78 68 53 83 71 55 82 70 54 81 70 54 59 51 40 60 52 40 87 77 60 85 74 57 93 82 64 88 77 60 90 80 62 88 77 60 82 71 56 86 74 57 84 74 57 89 77 61 83 72 56 80 68 53 78 67 53 79 69 53 56 49 38 61 52 41 89 77 60 102 90 70 100 89 70 94 84 65 89 79 61 84 74 57 87 77 60 89 78 61 92 81 63 91 78 61 86 74 57 89 77 61 84 73 57 86 75 59 55 48 37 60 52 41 81 69 54 96 84 66 93 81 64 95 83 65 94 81 63 97 83 64 91 78 61 88 76 59 86 74 58 93 81 63 96 83 64 94 81 63 87 76 59 78 69 53 57 49 39 
67 59 46 90 78 61 94 81 63 93 80 62 107 93 73 112 99 77 117 104 81 109 97 75 113 99 77 109 96 75 107 94 73 98 86 66 103 88 68 96 83 64 88 76 59 60 51 40 59 50 39 87 76 59 87 76 59 100 88 68 102 88 69 104 90 70 105 90 70 101 87 68 104 90 70 94 81 63 97 83 65 91 79 61 88 76 59 80 69 54 82 71 56 60 52 41 65 57 45 95 85 67 114 103 81 117 106 82 117 105 82 108 96 75 101 88 69 101 90 70 104 92 72 111 98 77 111 96 75 110 95 74 109 93 73 97 84 65 91 78 61 63 54 42 66 58 46 89 78 61 98 86 67 99 85 66 111 95 74 112 96 75 117 101 78 109 94 73 111 96 75 102 88 68 108 93 72 103 89 69 112 96 75 101 88 68 91 79 62 60 52 40 
72 63 49 92 80 62 102 88 69 112 97 75 130 114 89 132 117 91 142 126 98 139 121 94 138 119 92 129 112 88 126 109 85 119 104 81 122 105 81 102 88 68 93 80 62 62 53 42 61 52 40 88 77 60 97 84 66 126 111 86 132 114 89 135 117 91 136 116 91 137 118 91 134 115 90 122 105 81 116 100 78 118 102 79 106 92 71 91 79 61 84 74 57 66 57 45 66 58 46 97 86 68 112 102 80 133 118 92 133 118 92 126 110 85 116 102 79 116 101 78 121 104 81 135 118 91 140 121 93 142 122 95 134 115 89 101 86 67 88 77 60 61 53 41 66 58 45 92 81 63 105 92 72 127 109 85 141 122 95 144 126 98 151 132 102 140 122 95 137 117 91 126 109 84 138 118 92 137 117 91 139 119 92 112 98 76 98 85 66 64 56 43 
71 62 48 91 79 61 103 89 69 109 94 74 123 108 84 127 112 88 134 118 92 136 118 92 126 108 84 121 104 81 112 96 74 118 102 79 123 106 82 109 94 74 91 78 61 62 53 42 59 51 40 83 71 55 95 82 64 117 100 78 128 110 86 128 110 86 137 117 91 139 119 93 138 120 93 121 105 82 119 104 81 118 102 79 115 100 77 93 81 62 85 74 57 63 55 42 64 57 45 92 81 64 106 94 74 128 112 87 132 115 90 128 111 86 115 98 77 112 96 74 112 96 75 130 113 88 138 119 93 140 121 95 132 113 88 104 89 70 90 77 60 65 56 43 67 59 46 98 86 67 108 95 74 133 115 90 149 130 101 149 132 102 151 132 102 135 118 91 128 109 85 120 103 80 126 108 84 128 110 86 127 109 84 108 93 73 92 80 62 60 52 40 
61 52 40 85 73 57 97 84 65 98 85 66 97 84 66 97 83 65 104 91 71 110 96 75 103 90 70 99 84 66 92 79 62 99 86 67 101 87 68 98 84 65 90 77 60 62 53 41 63 54 42 87 75 58 101 87 67 104 89 69 107 92 72 104 89 69 108 92 72 105 90 70 110 95 74 100 87 68 103 90 70 103 92 71 107 95 74 106 94 73 93 81 63 66 58 45 63 55 43 91 77 61 98 84 65 99 86 67 102 89 69 100 87 68 92 79 61 89 76 59 85 73 57 97 83 65 101 89 69 106 93 73 104 92 71 92 79 61 85 73 57 64 56 44 67 59 46 99 87 68 102 87 68 113 98 76 114 99 77 111 97 76 101 89 69 98 85 67 96 82 64 97 83 65 96 82 64 104 89 69 101 87 68 107 92 72 91 78 61 62 53 41 
51 44 34 72 62 48 81 70 54 91 78 61 94 81 63 94 81 63 93 81 63 90 79 61 85 74 58 87 74 57 85 73 56 90 77 60 87 75 58 89 77 60 84 73 57 61 53 41 62 54 42 80 69 53 89 77 60 89 76 59 90 77 60 89 76 59 90 77 60 94 81 63 97 84 65 93 81 63 96 85 66 91 82 64 95 85 66 91 81 63 83 72 56 58 50 39 57 49 38 81 70 54 92 79 61 91 78 61 98 84 66 92 80 62 91 78 61 82 71 55 73 63 49 74 64 50 82 72 56 91 80 63 94 83 64 88 76 59 84 72 56 61 54 42 64 56 44 89 78 61 92 78 61 94 81 63 96 82 64 95 83 64 87 76 59 89 77 60 85 73 57 83 71 55 77 66 51 80 69 54 84 73 57 94 82 64 85 75 58 59 51 40 
45 38 30 46 39 31 49 42 33 60 51 40 64 55 43 65 56 43 65 57 44 66 59 46 61 55 43 63 56 44 62 54 42 62 54 43 59 51 40 57 49 38 63 55 43 59 51 40 61 53 41 63 55 44 66 58 46 68 59 47 65 56 43 64 55 43 60 52 40 64 56 43 66 57 45 68 59 46 70 63 49 69 63 49 69 63 49 66 59 46 61 53 41 57 49 38 55 48 37 60 52 41 64 56 43 60 52 40 64 55 43 62 53 41 64 55 43 59 50 39 55 47 37 53 46 36 61 55 43 65 58 46 67 60 47 64 56 43 64 56 44 57 51 40 59 52 40 61 54 42 64 55 43 63 54 42 62 53 42 61 53 41 59 52 41 63 56 44 63 55 43 63 54 42 60 52 40 61 52 41 63 54 42 64 56 43 63 55 43 56 49 38 
54 47 36 51 44 34 51 44 34 56 48 38 63 53 42 66 56 44 67 58 45 62 54 42 58 51 40 64 57 45 64 56 44 63 55 43 59 51 40 61 53 41 65 57 44 65 56 44 63 55 43 65 57 45 65 57 45 65 57 45 62 53 41 61 53 41 56 48 38 57 49 38 57 50 39 65 56 44 66 58 45 66 59 46 67 60 47 64 56 44 63 54 42 64 56 43 61 54 42 63 56 43 61 53 41 61 53 41 62 54 42 65 57 44 68 60 46 57 49 38 55 48 37 55 49 38 63 56 44 60 53 42 66 58 46 65 57 45 68 60 47 61 53 42 64 55 43 64 55 43 67 58 45 65 56 43 65 55 43 68 60 47 68 61 48 64 58 45 60 53 41 62 54 42 64 55 42 62 53 41 63 55 43 63 55 43 62 54 42 56 49 38 
88 75 59 81 69 54 74 63 49 75 64 50 80 68 53 87 75 58 91 78 60 69 60 46 65 57 44 92 82 64 95 83 65 95 83 65 93 80 62 93 79 62 94 80 62 94 80 62 93 80 62 98 86 67 94 82 65 94 82 64 88 76 59 88 76 59 80 69 53 60 52 40 63 55 43 91 81 63 94 83 65 94 84 66 93 82 64 98 85 66 93 80 62 93 81 64 91 81 63 91 81 63 90 77 61 87 75 58 92 81 63 94 84 65 92 82 64 62 54 42 65 57 44 84 73 57 91 81 64 84 73 57 90 80 63 94 84 65 95 84 66 91 79 62 91 79 61 94 81 64 96 83 64 93 80 62 90 77 60 91 80 63 87 77 60 62 55 43 59 51 40 84 73 56 95 81 63 94 81 63 92 78 61 90 77 60 89 76 59 85 73 57 
98 84 65 97 83 65 95 81 63 101 86 67 102 87 68 97 83 65 94 81 63 68 58 45 70 60 47 100 85 67 104 89 69 112 96 75 114 98 76 114 98 76 106 91 71 105 92 72 105 92 72 111 97 76 105 90 70 102 87 68 95 81 63 93 80 62 89 76 59 65 56 43 66 57 45 94 83 64 97 85 66 100 87 68 98 84 65 103 88 69 100 86 67 100 88 68 99 87 68 104 91 71 103 88 68 103 88 69 107 94 73 110 99 77 103 93 73 67 60 47 69 60 47 97 86 67 102 90 70 99 86 66 103 90 70 105 93 72 105 92 72 101 87 68 101 87 68 105 90 70 103 89 69 100 86 67 101 86 67 101 88 69 96 84 65 63 55 43 58 50 38 84 71 56 92 79 61 97 83 65 96 82 64 102 87 68 102 87 68 98 84 65 
137 120 93 128 112 87 119 105 82 128 110 86 123 105 82 99 85 66 88 75 59 64 55 43 67 57 44 95 82 64 109 93 73 136 117 91 151 130 101 146 127 99 140 121 94 138 123 96 137 120 94 143 125 98 138 119 92 133 114 89 117 101 78 94 81 63 88 76 59 64 55 43 67 58 45 97 85 66 102 90 70 120 105 81 122 104 81 127 109 84 125 107 83 119 102 79 130 112 87 137 119 93 144 124 97 142 125 97 139 122 95 113 101 79 98 86 67 67 58 45 69 59 46 98 84 66 107 93 73 124 108 84 128 110 86 126 109 85 127 109 85 130 112 87 125 107 84 130 111 86 130 111 86 121 104 81 115 99 77 93 80 62 86 74 57 59 52 41 57 50 39 82 72 57 92 79 61 113 97 75 125 107 83 128 110 85 133 114 88 130 112 86 
142 125 97 133 116 91 134 119 92 138 120 93 136 119 92 104 89 70 88 76 59 63 54 42 66 57 44 97 83 65 104 90 70 130 112 88 143 126 98 145 128 100 139 123 96 137 121 95 136 119 93 142 125 98 137 118 92 132 114 88 118 102 79 97 84 65 91 78 61 67 58 45 67 57 44 93 80 62 102 88 68 120 103 80 125 107 83 120 103 80 124 106 83 123 105 82 128 110 86 137 118 92 144 127 99 144 128 100 135 120 94 108 96 75 91 80 62 62 55 43 66 56 43 97 84 65 112 97 76 129 112 88 133 115 89 127 109 84 127 109 85 130 111 86 132 115 90 136 119 93 137 120 93 129 111 86 121 103 80 96 83 64 89 77 59 64 56 44 62 54 43 85 74 59 88 76 59 112 96 75 126 109 85 135 116 90 137 120 93 133 117 91 
115 101 79 108 95 74 107 94 73 105 91 71 112 98 76 108 93 72 93 80 62 60 52 40 59 51 40 88 76 59 97 84 65 101 87 68 109 95 74 114 101 78 111 98 76 101 88 68 99 85 66 107 92 71 106 91 71 103 89 69 96 83 65 95 83 64 91 78 61 65 56 43 63 54 42 87 75 58 96 84 66 100 88 68 102 90 70 100 86 67 108 93 72 106 92 72 105 91 71 103 89 69 110 97 76 115 104 81 117 106 82 102 91 71 91 79 61 60 51 40 66 56 44 93 80 62 102 88 68 99 85 66 97 83 65 99 85 66 101 87 68 109 94 73 108 95 74 111 97 76 106 93 72 100 86 67 99 84 66 92 79 61 88 76 59 63 55 43 63 55 43 89 78 61 93 80 62 103 88 69 106 92 71 110 95 74 114 100 77 116 102 79 
91 77 61 89 77 60 92 80 62 87 76 59 94 83 64 94 81 63 84 73 57 55 47 37 56 48 38 83 71 56 86 74 57 84 72 56 86 75 58 91 80 62 92 80 62 84 71 55 86 74 57 89 76 59 87 74 58 88 75 59 83 71 55 91 79 61 86 74 58 63 54 42 61 53 41 83 71 55 93 81 64 90 78 61 85 74 58 85 74 57 90 79 61 92 81 63 87 77 60 84 73 57 92 84 65 95 86 67 98 89 69 88 78 61 82 71 55 55 47 37 61 52 40 84 72 56 91 78 61 90 77 60 91 78 61 98 84 65 91 79 61 91 77 60 89 78 61 94 84 65 91 81 63 91 79 61 91 78 61 95 83 64 92 80 62 64 56 43 61 52 41 82 71 55 91 77 61 94 81 63 93 80 62 93 81 63 98 86 67 101 89 69 
60 51 40 62 53 41 63 54 42 59 51 39 59 51 40 61 53 41 61 53 41 51 44 34 52 44 34 57 49 38 63 54 42 62 53 41 62 53 41 63 54 42 62 53 41 57 49 38 59 51 40 60 53 41 63 55 43 63 53 42 61 53 41 65 56 43 63 54 42 57 49 38 57 49 38 60 52 41 67 59 46 63 55 43 61 53 41 60 52 40 64 56 43 65 57 44 65 57 44 61 53 42 63 56 44 65 57 44 67 59 46 64 57 44 64 56 44 58 51 40 61 53 41 64 56 43 66 57 44 65 56 43 65 56 43 68 58 45 65 56 43 63 53 42 59 50 39 63 54 42 59 52 40 59 51 40 58 50 39 61 53 41 66 59 46 57 51 40 56 49 38 59 50 39 64 55 43 64 55 43 59 51 40 57 49 38 62 54 42 67 58 45 
57 49 38 62 54 42 63 54 42 57 50 38 55 47 37 53 45 35 58 50 39 55 47 37 60 51 40 62 53 41 66 56 44 66 57 44 63 54 42 63 54 42 59 51 40 54 46 36 58 50 39 63 55 43 70 62 49 66 58 45 67 59 47 66 57 44 65 56 44 60 52 40 63 54 42 65 57 44 71 62 48 67 58 45 61 53 41 59 51 40 57 50 38 53 46 36 54 47 37 57 50 39 65 57 45 64 56 43 61 53 41 58 50 39 60 52 40 61 53 42 63 54 42 63 54 42 65 56 43 68 59 46 70 61 47 72 63 49 63 55 43 54 46 36 53 46 35 63 54 42 64 57 44 61 54 43 57 50 40 57 50 39 60 54 42 60 53 42 59 52 41 58 50 39 60 51 40 58 50 39 56 48 37 54 46 36 57 49 38 55 47 37 
61 54 42 86 75 58 89 77 60 87 76 59 80 69 54 80 68 53 86 74 57 84 72 56 86 73 57 87 74 57 93 80 62 97 83 64 91 78 61 90 77 60 77 66 52 58 50 39 61 54 41 86 75 59 101 91 71 94 83 64 98 87 68 91 78 61 91 79 61 84 72 56 91 79 61 92 81 63 102 89 69 96 83 65 96 83 64 86 74 58 84 74 58 61 53 41 60 53 41 79 69 53 87 74 57 91 78 61 89 76 59 90 77 60 91 78 61 94 82 64 94 81 63 95 82 64 88 75 59 91 78 61 91 79 61 94 82 64 80 69 54 57 49 38 60 51 40 86 73 57 93 81 64 84 74 58 84 74 57 79 67 52 88 78 61 90 80 62 87 77 60 82 71 55 80 68 53 85 73 57 86 74 57 84 73 57 78 67 52 57 49 38 
62 54 42 93 81 63 99 84 66 103 88 69 98 84 66 99 85 66 102 88 69 99 86 67 101 88 68 100 85 67 104 89 70 106 91 71 98 84 65 91 78 61 81 69 54 60 52 40 64 56 43 94 81 64 110 97 76 108 95 74 113 102 81 106 95 75 106 95 75 100 87 67 105 90 70 110 95 74 113 98 76 112 97 75 109 94 73 102 90 70 91 81 63 61 54 42 56 49 38 81 72 56 94 82 64 106 92 71 104 91 72 102 89 70 102 90 70 100 86 67 99 84 66 101 87 68 97 83 65 100 86 67 99 87 67 95 83 65 81 71 55 56 48 37 64 56 43 94 82 64 108 96 75 101 89 70 100 88 69 93 80 62 101 88 68 108 94 73 101 88 69 96 82 64 94 81 63 103 89 69 107 93 72 103 89 70 89 76 59 58 50 39 
64 56 44 95 83 65 102 87 68 125 108 83 127 109 84 141 121 94 136 118 92 130 112 87 120 104 81 124 106 83 131 112 87 133 114 89 119 102 80 91 79 61 77 66 52 56 48 38 62 53 42 90 78 61 109 94 74 128 109 85 142 125 98 138 122 96 135 119 94 130 113 88 132 114 88 132 113 88 130 111 86 132 114 88 136 119 92 112 99 77 97 87 67 66 59 46 63 56 43 89 78 61 97 84 65 128 111 86 138 121 95 142 124 97 133 116 91 133 116 90 128 112 88 140 122 95 132 113 88 128 109 85 117 100 78 89 77 59 81 70 54 55 47 37 63 54 42 87 76 59 105 91 71 125 107 83 134 115 90 134 115 90 132 114 89 133 115 90 124 107 84 130 111 86 130 112 87 139 120 93 136 117 91 113 97 76 96 84 65 64 56 44 
66 59 46 99 87 67 106 91 71 122 104 81 127 109 85 143 123 95 145 126 98 136 118 91 124 107 83 126 108 84 135 116 90 138 118 91 126 108 84 92 79 62 77 67 52 50 42 33 56 49 38 88 76 59 110 95 74 126 108 84 138 121 95 137 121 95 137 121 96 135 118 91 133 114 88 135 116 90 130 111 86 133 116 90 130 112 88 105 92 72 93 81 63 62 55 43 63 55 43 87 76 59 101 88 68 122 106 82 134 118 92 129 113 89 126 111 86 125 109 85 126 110 86 140 123 95 146 126 98 143 124 96 130 112 88 95 81 63 87 74 58 59 50 39 60 53 41 84 74 57 99 86 67 128 112 88 137 120 94 133 117 91 122 105 81 122 105 81 125 107 83 134 115 90 134 115 90 136 117 91 127 109 84 108 93 72 94 82 64 66 58 45 
66 59 46 96 84 66 100 88 69 99 87 68 98 86 68 103 88 69 106 91 71 99 85 66 96 82 64 102 88 68 108 93 72 108 93 72 103 88 69 92 79 61 80 68 54 46 39 30 50 43 34 78 67 52 97 84 65 100 85 66 102 88 68 101 87 68 99 85 66 98 84 65 100 86 67 102 87 68 101 86 67 98 85 66 102 89 69 93 81 63 94 81 63 61 53 41 66 57 44 84 72 56 98 84 65 96 82 64 106 91 71 97 83 65 97 83 65 97 85 66 102 90 70 113 99 77 114 99 77 115 99 77 107 93 72 98 84 65 87 75 58 60 51 40 58 50 39 85 73 57 95 82 64 107 93 73 111 97 76 109 96 75 96 82 64 91 78 61 90 77 60 99 85 66 102 88 68 106 91 71 106 91 71 99 85 66 92 80 62 65 57 44 
60 52 40 84 73 56 85 76 59 86 76 59 84 74 58 88 76 59 95 81 63 93 80 62 93 80 62 95 82 64 92 79 62 92 79 62 90 77 60 91 78 61 80 69 53 49 42 33 52 46 35 75 66 52 87 77 60 84 72 56 81 70 54 85 73 57 81 70 54 87 75 58 87 75 58 94 80 63 93 80 62 87 74 58 87 75 58 83 71 55 90 79 62 60 54 41 65 59 46 83 73 58 95 84 66 87 75 58 87 75 58 80 69 54 83 71 55 81 70 54 87 74 58 93 79 62 95 82 64 99 86 67 95 84 65 92 80 62 80 70 54 57 49 38 59 50 39 86 74 58 94 82 64 99 87 69 100 90 70 93 83 65 91 79 62 84 72 56 84 72 56 82 71 55 87 74 58 91 78 61 89 77 60 85 73 57 80 69 53 59 51 39 
51 44 34 58 49 39 60 53 41 61 54 42 60 53 42 60 52 40 61 53 41 60 51 40 64 55 43 67 57 45 63 55 43 62 53 41 59 51 40 63 54 42 60 51 40 52 44 35 51 44 35 56 49 38 59 51 40 61 52 41 59 51 40 65 56 44 61 53 41 64 55 43 62 53 41 64 55 43 64 55 43 61 53 41 63 54 42 62 53 41 65 57 44 59 51 40 61 56 44 66 59 46 67 60 48 63 54 42 61 53 41 58 50 39 59 50 39 57 50 39 63 55 43 67 59 46 65 56 43 66 56 44 63 55 43 65 57 44 61 53 41 57 49 38 58 50 39 64 55 43 66 58 45 66 57 44 67 59 46 66 58 45 67 59 46 63 55 43 58 50 39 58 50 39 63 54 42 66 57 45 62 54 42 57 49 38 56 48 37 54 46 36 
61 53 41 63 54 42 63 54 42 65 56 43 62 53 41 64 55 43 63 54 42 59 50 39 59 51 39 63 54 42 63 54 42 61 52 41 63 54 42 64 55 43 61 53 41 59 51 40 59 51 40 62 54 42 61 53 42 62 53 41 59 51 40 63 55 43 60 52 41 58 50 39 56 48 37 64 55 42 67 57 45 68 59 47 65 57 45 63 55 43 61 54 42 67 59 46 70 64 50 72 64 51 66 59 47 62 53 42 60 53 41 63 54 42 60 52 41 55 48 38 58 51 40 68 60 47 66 57 44 66 57 44 64 56 44 67 58 45 64 56 43 64 55 43 65 56 43 65 56 43 64 56 43 66 57 44 67 59 46 67 59 46 67 59 46 57 50 39 55 47 37 58 49 39 66 56 44 64 55 43 60 52 40 55 47 37 56 48 38 58 50 39 
83 71 56 89 77 60 98 84 66 99 85 66 93 80 62 87 74 58 79 67 53 59 51 39 61 53 41 83 71 55 91 78 61 84 72 56 87 75 59 85 73 57 87 75 59 86 74 57 84 73 57 90 79 61 93 81 64 94 81 64 91 79 62 91 79 61 87 75 59 62 53 41 64 54 42 88 75 58 98 84 65 98 86 67 92 81 64 87 77 61 84 72 56 93 80 62 95 84 65 93 82 64 90 79 61 90 77 61 94 81 64 93 81 63 86 74 58 61 54 42 64 56 44 96 86 67 99 87 68 101 91 73 93 82 65 97 86 68 94 81 63 97 83 64 94 81 63 90 77 60 85 73 57 85 73 57 85 73 57 91 79 62 88 77 60 63 56 43 62 54 42 82 70 54 97 84 65 92 79 62 91 79 61 81 69 54 83 71 55 83 71 55 
98 85 66 104 90 70 109 93 73 112 97 75 102 87 68 92 79 62 83 71 55 63 54 42 64 55 43 87 74 58 95 82 64 97 83 65 104 90 70 102 88 68 106 91 71 103 89 69 106 91 71 107 94 73 109 95 74 109 95 74 102 87 68 94 81 63 79 68 53 59 50 39 60 52 40 90 77 60 99 85 66 105 92 72 106 95 75 106 96 76 107 95 74 112 99 77 107 93 72 103 90 70 102 88 68 108 94 73 110 96 74 103 90 70 91 79 62 63 54 42 65 56 44 99 88 69 107 96 74 115 103 82 111 98 78 112 99 79 110 95 74 112 96 75 112 96 75 108 92 72 96 83 64 98 84 65 95 81 63 102 89 69 93 82 64 65 57 45 64 56 43 87 74 58 100 86 67 99 85 66 105 90 70 98 84 66 101 87 67 99 85 66 
111 97 75 121 105 82 133 116 90 126 108 84 118 101 78 92 79 61 84 72 56 62 54 42 63 55 43 90 78 61 98 84 65 120 103 80 132 113 88 132 112 88 133 114 89 129 111 86 137 118 92 137 119 93 140 123 96 138 120 93 130 111 87 101 86 67 84 72 56 62 53 41 60 52 40 87 76 59 99 86 67 125 109 85 135 118 92 138 125 97 140 128 99 143 130 102 132 116 91 134 119 93 137 118 92 144 125 97 134 116 91 104 90 70 90 77 60 60 51 40 59 52 40 88 78 61 108 96 75 140 126 100 147 131 104 142 126 100 143 124 97 140 121 94 144 126 98 132 116 91 123 108 84 118 102 79 115 99 77 103 90 71 95 85 67 69 62 48 69 60 47 92 79 61 100 86 67 119 102 80 125 107 83 128 111 86 123 107 83 122 106 83 
121 106 83 123 107 83 132 114 89 118 101 79 119 102 79 98 84 65 92 79 61 66 57 44 65 56 44 94 82 64 102 87 68 125 107 83 130 111 86 127 109 84 128 110 85 126 108 84 137 117 91 134 115 90 135 116 90 133 115 89 128 109 85 104 89 69 84 72 56 61 52 41 58 50 39 90 79 61 102 89 70 127 112 87 135 118 92 138 125 98 139 126 98 144 131 103 132 116 91 140 125 97 140 122 95 147 128 100 129 113 88 95 81 63 80 68 53 54 47 36 58 51 40 87 76 59 106 92 72 131 112 88 142 124 97 142 124 97 145 126 98 136 117 91 134 118 92 130 116 91 126 112 88 123 107 83 119 102 80 105 92 72 99 87 68 71 63 49 70 61 47 98 84 65 103 88 69 128 109 85 126 108 84 131 113 88 118 102 79 116 101 79 
103 90 70 99 86 67 104 91 71 95 81 63 106 92 72 101 88 68 98 86 67 67 58 45 67 59 46 98 86 67 100 87 68 102 87 68 101 87 68 104 89 69 104 89 69 99 85 66 106 92 72 105 92 71 111 97 75 106 91 71 107 92 71 99 85 66 90 77 60 64 55 43 64 55 43 100 89 69 109 97 75 108 96 74 103 89 69 104 92 72 106 93 73 108 97 76 104 91 71 114 100 78 113 98 77 114 99 77 106 92 72 93 80 62 83 71 55 54 46 36 55 47 36 78 67 52 96 82 64 106 91 71 106 92 72 106 93 72 105 91 71 105 90 70 102 90 70 102 91 71 106 95 74 103 90 70 103 88 69 99 87 67 102 90 70 72 63 50 71 62 48 98 84 65 99 84 65 102 87 68 99 86 67 107 95 74 99 88 69 94 82 63 
89 77 60 85 74 57 92 79 62 89 77 60 99 87 68 100 87 68 92 80 62 64 54 42 62 54 42 90 79 61 93 81 63 88 75 59 83 71 56 87 74 58 87 75 58 87 75 58 92 80 62 94 83 64 96 84 65 95 82 64 93 80 62 94 81 63 84 72 56 62 54 41 64 55 43 94 82 64 101 88 68 93 81 63 90 77 60 89 76 60 93 81 63 97 84 66 94 82 64 95 82 64 94 81 63 98 85 66 94 81 64 87 75 58 77 66 51 55 47 37 55 47 37 79 68 53 90 78 61 93 81 63 88 76 59 88 75 58 87 74 58 90 77 60 87 76 59 89 79 61 91 81 62 87 77 60 87 76 59 91 80 62 96 84 66 69 60 47 67 58 45 87 75 58 93 80 62 92 80 62 94 83 65 96 84 65 94 83 65 91 78 61 
58 50 39 59 51 40 66 58 45 64 56 44 69 61 48 69 60 47 65 57 44 58 50 39 55 49 38 63 55 43 63 55 43 61 53 41 59 51 40 64 55 43 63 54 42 64 54 42 64 56 43 66 57 45 65 57 44 67 58 45 65 56 44 66 57 44 62 53 41 60 51 40 60 52 40 65 56 44 66 57 45 63 54 42 63 54 42 62 54 42 67 58 45 70 62 48 69 61 47 67 59 46 65 55 43 66 56 44 66 57 44 66 57 44 63 54 42 57 49 38 52 45 35 58 50 39 63 55 43 67 59 46 63 56 43 61 53 41 59 51 39 64 55 43 66 58 45 66 58 45 64 56 44 59 51 40 63 54 42 65 57 44 71 63 49 61 55 43 59 51 40 56 49 38 61 53 41 60 53 41 67 60 47 69 61 47 73 64 50 71 61 47 
